<svg id="svg" version="1.1" xmlns="http://www.w3.org/2000/svg" xmlns:xlink="http://www.w3.org/1999/xlink" width="400" height="400" viewBox="0, 0, 400,400"><g id="svgg"><path id="path0" d="M326.800 2.000 C 326.800 2.220,326.455 2.400,326.033 2.400 C 324.901 2.400,323.973 2.833,324.226 3.242 C 324.348 3.439,323.927 3.600,323.291 3.600 C 322.467 3.600,321.981 3.887,321.600 4.600 C 321.270 5.216,320.716 5.600,320.156 5.600 C 319.656 5.600,319.136 5.780,319.000 6.000 C 318.864 6.220,318.403 6.400,317.976 6.400 C 317.549 6.400,317.200 6.605,317.200 6.856 C 317.200 7.479,315.960 8.372,315.071 8.387 C 314.671 8.394,314.092 8.625,313.785 8.900 C 312.462 10.087,312.009 10.400,311.617 10.400 C 311.388 10.400,311.200 10.560,311.200 10.757 C 311.200 10.953,310.750 11.226,310.200 11.364 C 309.650 11.502,309.200 11.792,309.200 12.008 C 309.200 12.223,308.930 12.400,308.600 12.400 C 308.270 12.400,308.000 12.580,308.000 12.800 C 308.000 13.020,307.640 13.200,307.200 13.200 C 306.756 13.200,306.400 13.467,306.400 13.800 C 306.400 14.173,306.022 14.400,305.400 14.400 C 304.850 14.400,304.400 14.580,304.400 14.800 C 304.400 15.020,304.130 15.200,303.800 15.200 C 303.470 15.200,303.200 15.470,303.200 15.800 C 303.200 16.173,302.822 16.400,302.200 16.400 C 301.650 16.400,301.200 16.580,301.200 16.800 C 301.200 17.020,300.865 17.200,300.456 17.200 C 300.047 17.200,299.374 17.650,298.961 18.200 C 298.548 18.750,297.818 19.200,297.338 19.200 C 296.859 19.200,296.403 19.390,296.326 19.622 C 296.249 19.854,295.909 20.084,295.570 20.134 C 295.232 20.183,294.526 20.624,294.002 21.112 C 293.478 21.600,292.822 22.000,292.544 22.000 C 292.267 22.000,291.896 22.225,291.720 22.500 C 291.544 22.775,290.320 23.533,289.000 24.185 C 287.680 24.837,286.510 25.487,286.400 25.631 C 286.290 25.775,285.792 26.019,285.294 26.175 C 284.796 26.330,284.492 26.625,284.618 26.829 C 284.744 27.033,284.387 27.200,283.824 27.200 C 283.261 27.200,282.800 27.380,282.800 27.600 C 282.800 27.820,282.350 28.000,281.800 28.000 C 281.250 28.000,280.800 28.205,280.800 28.456 C 280.800 29.117,279.539 29.973,278.543 29.987 C 278.071 29.994,277.582 30.270,277.455 30.600 C 277.329 30.930,276.958 31.200,276.631 31.200 C 276.304 31.200,275.570 31.666,275.000 32.236 C 274.424 32.813,273.706 33.173,273.382 33.049 C 273.035 32.915,272.800 33.063,272.800 33.413 C 272.800 33.736,272.440 34.000,272.000 34.000 C 271.560 34.000,271.200 34.180,271.200 34.400 C 271.200 34.620,270.924 34.800,270.587 34.800 C 270.251 34.800,269.871 35.070,269.745 35.400 C 269.618 35.730,269.174 36.000,268.757 36.000 C 268.341 36.000,268.000 36.180,268.000 36.400 C 268.000 36.620,267.634 36.800,267.187 36.800 C 266.741 36.800,266.271 37.070,266.145 37.400 C 266.018 37.730,265.593 38.000,265.199 38.000 C 264.806 38.000,264.060 38.447,263.542 38.993 C 263.024 39.539,262.285 39.989,261.900 39.993 C 261.515 39.997,261.200 40.180,261.200 40.400 C 261.200 40.620,260.930 40.800,260.600 40.800 C 260.270 40.800,260.000 40.980,260.000 41.200 C 260.000 41.420,259.773 41.600,259.496 41.600 C 259.219 41.600,258.507 42.050,257.913 42.600 C 257.320 43.150,256.551 43.600,256.205 43.600 C 255.858 43.600,255.471 43.870,255.345 44.200 C 255.218 44.530,254.766 44.800,254.340 44.800 C 253.203 44.800,251.990 46.085,252.248 47.015 C 252.381 47.496,254.567 49.039,257.894 51.000 C 260.879 52.760,264.060 54.666,264.961 55.235 C 266.246 56.046,280.152 64.246,285.949 67.610 C 286.527 67.945,291.500 70.915,296.999 74.210 C 302.498 77.504,307.178 80.290,307.399 80.400 C 307.785 80.592,312.317 83.275,322.654 89.428 C 325.324 91.017,327.934 92.450,328.454 92.612 C 328.974 92.775,329.535 93.109,329.700 93.354 C 329.909 93.665,330.119 93.619,330.394 93.200 C 330.824 92.545,330.984 3.345,330.557 2.233 C 330.283 1.519,326.800 1.303,326.800 2.000 M234.593 173.200 C 234.593 198.170,234.641 208.385,234.700 195.900 C 234.759 183.415,234.759 162.985,234.700 150.500 C 234.641 138.015,234.593 148.230,234.593 173.200 M251.298 184.462 C 251.388 224.692,251.471 230.134,252.000 230.212 C 252.518 230.288,265.096 237.525,266.200 238.382 C 266.420 238.553,267.410 239.141,268.400 239.688 C 269.390 240.235,272.540 242.087,275.400 243.803 C 278.260 245.520,281.140 247.233,281.800 247.611 C 282.460 247.988,285.790 249.966,289.200 252.006 C 292.610 254.047,295.940 256.024,296.600 256.400 C 297.260 256.776,300.320 258.570,303.400 260.386 C 306.480 262.202,309.810 264.144,310.800 264.701 C 311.790 265.259,313.050 266.023,313.600 266.400 C 319.523 270.462,329.285 275.807,330.164 275.469 C 331.195 275.073,331.132 184.892,330.100 184.528 C 328.664 184.023,326.953 183.201,325.400 182.270 C 316.930 177.197,311.699 174.106,311.200 173.882 C 310.870 173.734,308.560 172.350,306.066 170.806 C 303.572 169.263,301.367 168.000,301.166 168.000 C 300.965 168.000,300.800 167.833,300.800 167.629 C 300.800 167.425,300.566 167.200,300.279 167.129 C 299.759 167.000,294.670 164.017,275.321 152.500 C 269.684 149.145,265.022 146.400,264.961 146.400 C 264.899 146.400,263.117 145.320,261.000 144.000 C 258.883 142.680,257.094 141.600,257.024 141.600 C 256.954 141.600,255.851 140.970,254.572 140.200 C 253.293 139.430,252.011 138.800,251.722 138.800 C 251.291 138.800,251.215 146.978,251.298 184.462 M234.593 264.000 C 234.593 288.750,234.641 298.875,234.700 286.500 C 234.759 274.125,234.759 253.875,234.700 241.500 C 234.641 229.125,234.593 239.250,234.593 264.000 M234.593 355.200 C 234.593 379.950,234.641 390.075,234.700 377.700 C 234.759 365.325,234.759 345.075,234.700 332.700 C 234.641 320.325,234.593 330.450,234.593 355.200 M321.200 364.357 C 321.200 364.554,321.470 364.818,321.800 364.945 C 322.165 365.085,322.400 364.945,322.400 364.587 C 322.400 364.264,322.130 364.000,321.800 364.000 C 321.470 364.000,321.200 364.161,321.200 364.357 M329.846 366.624 C 329.530 367.448,329.860 367.900,330.390 367.370 C 330.597 367.163,330.619 366.755,330.439 366.463 C 330.182 366.046,330.055 366.081,329.846 366.624 " stroke="none" fill="#ae0d1c" fill-rule="evenodd"></path><path id="path1" d="M135.100 71.054 C 134.495 71.378,134.000 71.814,134.000 72.022 C 134.000 72.230,133.640 72.400,133.200 72.400 C 132.760 72.400,132.400 72.580,132.400 72.800 C 132.400 73.020,132.034 73.200,131.587 73.200 C 131.141 73.200,130.671 73.470,130.545 73.800 C 130.418 74.130,130.064 74.400,129.757 74.400 C 129.451 74.400,129.200 74.580,129.200 74.800 C 129.200 75.020,128.750 75.200,128.200 75.200 C 127.631 75.200,127.243 75.408,127.300 75.682 C 127.355 75.947,127.220 76.180,127.000 76.200 C 126.264 76.266,123.600 77.358,123.600 77.593 C 123.600 77.721,122.430 78.444,121.000 79.200 C 119.570 79.956,118.400 80.715,118.400 80.887 C 118.400 81.059,118.040 81.200,117.600 81.200 C 117.160 81.200,116.800 81.380,116.800 81.600 C 116.800 81.820,116.530 82.000,116.200 82.000 C 115.870 82.000,115.600 82.232,115.600 82.515 C 115.600 82.798,115.198 83.060,114.706 83.097 C 114.214 83.134,113.749 83.352,113.673 83.582 C 113.596 83.812,113.306 84.000,113.029 84.000 C 112.751 84.000,112.001 84.450,111.362 85.000 C 110.723 85.549,109.885 85.999,109.500 86.000 C 109.115 86.000,108.800 86.270,108.800 86.600 C 108.800 86.930,108.665 87.160,108.500 87.111 C 108.083 86.987,105.600 88.137,105.600 88.454 C 105.600 88.597,105.150 88.826,104.600 88.964 C 104.050 89.102,103.600 89.392,103.600 89.608 C 103.600 89.823,103.356 90.000,103.058 90.000 C 102.761 90.000,102.031 90.450,101.438 91.000 C 100.844 91.550,100.008 92.000,99.579 92.000 C 99.151 92.000,98.800 92.139,98.800 92.309 C 98.800 92.479,98.170 92.957,97.400 93.372 C 96.630 93.787,96.000 94.258,96.000 94.420 C 96.000 94.581,95.550 94.826,95.000 94.964 C 94.450 95.102,94.000 95.392,94.000 95.608 C 94.000 95.823,93.726 96.000,93.391 96.000 C 92.839 96.000,89.683 97.839,89.200 98.442 C 89.090 98.580,88.595 98.819,88.100 98.973 C 87.605 99.128,87.200 99.422,87.200 99.627 C 87.200 99.832,87.042 100.000,86.849 100.000 C 86.304 100.000,83.968 101.117,82.200 102.223 C 81.320 102.773,80.105 103.415,79.500 103.651 C 78.895 103.886,78.400 104.241,78.400 104.439 C 78.400 104.638,78.130 104.800,77.800 104.800 C 77.470 104.800,77.200 104.980,77.200 105.200 C 77.200 105.420,76.834 105.600,76.387 105.600 C 75.941 105.600,75.471 105.870,75.345 106.200 C 75.218 106.530,74.774 106.800,74.357 106.800 C 73.941 106.800,73.600 106.980,73.600 107.200 C 73.600 107.420,73.330 107.600,73.000 107.600 C 72.670 107.600,72.400 107.870,72.400 108.200 C 72.400 108.573,72.022 108.800,71.400 108.800 C 70.850 108.800,70.400 108.959,70.400 109.153 C 70.400 109.348,70.085 109.621,69.700 109.760 C 68.389 110.234,67.204 111.071,67.469 111.336 C 67.614 111.481,67.405 111.600,67.004 111.600 C 66.604 111.600,65.686 112.050,64.964 112.600 C 64.243 113.150,63.371 113.600,63.027 113.600 C 62.682 113.600,62.400 113.780,62.400 114.000 C 62.400 114.220,62.124 114.400,61.787 114.400 C 61.451 114.400,61.071 114.670,60.945 115.000 C 60.818 115.330,60.464 115.600,60.157 115.600 C 59.464 115.600,59.426 116.233,60.100 116.549 C 60.375 116.678,61.265 117.192,62.077 117.692 C 64.339 119.083,70.102 122.520,71.000 123.013 C 71.440 123.255,74.950 125.348,78.800 127.665 C 82.650 129.982,88.950 133.728,92.800 135.990 C 96.650 138.251,101.393 141.068,103.341 142.250 C 105.288 143.433,106.955 144.400,107.045 144.400 C 107.180 144.400,109.328 145.685,114.400 148.799 C 114.730 149.002,116.080 149.806,117.400 150.586 C 118.720 151.366,120.460 152.408,121.266 152.902 C 123.520 154.282,131.948 159.193,134.292 160.492 C 135.443 161.130,136.489 161.820,136.616 162.026 C 136.743 162.232,137.286 162.400,137.822 162.400 L 138.797 162.400 138.900 207.500 C 138.958 232.305,139.003 211.650,139.002 161.600 L 139.000 70.600 137.600 70.533 C 136.830 70.495,135.705 70.730,135.100 71.054 " stroke="none" fill="#f7a600" fill-rule="evenodd"></path><path id="path2" d="M154.800 218.557 L 154.800 264.313 155.900 264.581 C 157.034 264.858,157.427 265.079,169.200 272.080 C 173.050 274.370,178.000 277.298,180.200 278.588 C 182.400 279.877,185.532 281.731,187.160 282.706 C 188.787 283.682,190.677 284.797,191.360 285.184 C 192.042 285.571,195.183 287.443,198.341 289.344 C 201.498 291.245,204.142 292.800,204.216 292.800 C 204.291 292.800,206.083 293.880,208.200 295.200 C 210.317 296.520,212.136 297.600,212.243 297.600 C 212.351 297.600,213.376 298.200,214.522 298.933 C 215.669 299.666,217.415 300.721,218.403 301.276 C 219.391 301.832,222.948 303.929,226.307 305.937 C 229.666 307.945,232.861 309.701,233.407 309.838 L 234.400 310.087 234.384 264.543 L 234.367 219.000 232.484 218.118 C 231.448 217.632,227.282 215.247,223.227 212.818 C 219.172 210.388,215.802 208.400,215.737 208.400 C 215.591 208.400,203.784 201.419,199.200 198.623 C 192.996 194.838,187.421 191.492,185.800 190.581 C 184.920 190.087,180.330 187.393,175.600 184.594 C 170.870 181.795,166.191 179.047,165.203 178.486 C 164.215 177.925,162.469 176.866,161.322 176.133 C 160.176 175.400,159.136 174.800,159.011 174.800 C 158.886 174.800,158.071 174.350,157.200 173.800 C 156.329 173.250,155.432 172.800,155.208 172.800 C 154.933 172.800,154.800 187.725,154.800 218.557 " stroke="none" fill="#c7d22c" fill-rule="evenodd"></path><path id="path3" d="M231.000 127.127 C 230.340 127.497,229.740 127.935,229.667 128.100 C 229.593 128.265,229.278 128.400,228.967 128.400 C 228.655 128.400,228.400 128.580,228.400 128.800 C 228.400 129.020,228.139 129.200,227.820 129.200 C 227.501 129.200,227.084 129.479,226.893 129.819 C 226.703 130.160,226.161 130.468,225.690 130.503 C 225.220 130.539,224.916 130.649,225.015 130.748 C 225.114 130.847,224.846 131.125,224.420 131.364 C 221.423 133.049,220.400 133.560,220.400 133.373 C 220.400 133.255,219.974 133.618,219.454 134.179 C 218.934 134.741,218.332 135.200,218.116 135.200 C 217.488 135.200,215.071 136.491,214.225 137.279 C 213.798 137.675,213.207 138.000,212.912 138.000 C 212.617 138.000,212.271 138.270,212.145 138.600 C 212.018 138.930,211.700 139.200,211.437 139.200 C 210.706 139.200,208.807 140.158,208.803 140.529 C 208.797 141.150,207.656 142.000,206.829 142.000 C 206.359 142.000,206.000 142.260,206.000 142.600 C 206.000 142.973,205.622 143.200,205.000 143.200 C 204.450 143.200,204.000 143.380,204.000 143.600 C 204.000 143.820,203.792 144.000,203.538 144.000 C 203.284 144.000,202.486 144.450,201.764 145.000 C 201.043 145.550,200.171 146.000,199.827 146.000 C 199.482 146.000,199.200 146.180,199.200 146.400 C 199.200 146.620,198.834 146.800,198.387 146.800 C 197.941 146.800,197.471 147.070,197.345 147.400 C 197.218 147.730,196.749 148.000,196.303 148.000 C 195.857 148.000,195.075 148.450,194.565 149.000 C 194.055 149.550,193.370 150.000,193.043 150.000 C 192.715 150.000,192.336 150.180,192.200 150.400 C 192.064 150.620,191.603 150.800,191.176 150.800 C 190.749 150.800,190.400 151.070,190.400 151.400 C 190.400 151.746,190.038 152.000,189.546 152.000 C 189.076 152.000,188.275 152.450,187.765 153.000 C 187.255 153.550,186.672 154.000,186.469 154.000 C 185.830 154.000,182.400 156.051,182.400 156.434 C 182.400 156.635,181.950 156.800,181.400 156.800 C 180.850 156.800,180.400 156.980,180.400 157.200 C 180.400 157.420,180.138 157.600,179.818 157.600 C 179.498 157.600,178.786 158.050,178.236 158.600 C 177.686 159.150,176.868 159.600,176.418 159.600 C 175.958 159.600,175.600 159.862,175.600 160.200 C 175.600 160.573,175.222 160.800,174.600 160.800 C 174.050 160.800,173.600 160.980,173.600 161.200 C 173.600 161.420,173.330 161.600,173.000 161.600 C 172.670 161.600,172.400 161.870,172.400 162.200 C 172.400 162.577,172.020 162.800,171.376 162.800 C 170.796 162.800,170.460 162.973,170.600 163.200 C 170.736 163.420,170.457 163.600,169.981 163.600 C 169.436 163.600,169.188 163.792,169.313 164.118 C 169.434 164.433,169.179 164.662,168.662 164.700 C 168.194 164.736,167.749 164.952,167.673 165.182 C 167.596 165.412,167.098 165.600,166.567 165.600 C 166.035 165.600,165.600 165.834,165.600 166.120 C 165.600 166.405,164.970 166.867,164.200 167.146 C 163.430 167.424,162.800 167.801,162.800 167.983 C 162.800 168.164,162.350 168.426,161.800 168.564 C 161.250 168.702,160.800 168.992,160.800 169.208 C 160.800 169.423,160.545 169.600,160.233 169.600 C 159.922 169.600,159.607 169.735,159.533 169.900 C 159.460 170.065,158.680 170.560,157.800 170.999 C 154.706 172.544,154.662 172.407,159.000 174.793 C 160.320 175.519,161.850 176.422,162.400 176.799 C 162.950 177.177,164.210 177.940,165.200 178.496 C 166.190 179.051,170.870 181.795,175.600 184.594 C 180.330 187.393,184.920 190.087,185.800 190.581 C 187.394 191.477,192.732 194.679,199.200 198.620 C 203.413 201.187,212.783 206.731,215.200 208.089 C 216.190 208.644,219.790 210.771,223.200 212.815 C 229.106 216.355,234.480 219.330,234.562 219.105 C 234.583 219.047,234.510 198.210,234.400 172.800 L 234.200 126.600 233.200 126.527 C 232.650 126.487,231.660 126.757,231.000 127.127 M154.800 310.357 C 154.800 361.288,154.607 357.377,157.161 358.187 C 157.622 358.334,158.000 358.622,158.000 358.827 C 158.000 359.032,158.249 359.200,158.554 359.200 C 159.329 359.200,161.236 360.231,160.964 360.503 C 160.841 360.626,161.158 360.858,161.670 361.017 C 162.181 361.177,162.690 361.419,162.800 361.554 C 163.146 361.980,165.503 363.200,165.978 363.200 C 166.229 363.200,166.829 363.568,167.311 364.018 C 168.308 364.946,170.279 366.000,171.019 366.000 C 171.291 366.000,171.618 366.270,171.745 366.600 C 171.871 366.930,172.326 367.200,172.754 367.200 C 173.183 367.200,173.593 367.353,173.667 367.540 C 173.867 368.051,177.101 370.000,177.749 370.000 C 178.060 370.000,178.418 370.270,178.545 370.600 C 178.671 370.930,179.101 371.200,179.499 371.200 C 179.897 371.200,180.483 371.560,180.800 372.000 C 181.117 372.440,181.768 372.800,182.246 372.800 C 182.723 372.800,183.218 373.070,183.345 373.400 C 183.471 373.730,183.941 374.000,184.387 374.000 C 184.834 374.000,185.200 374.180,185.200 374.400 C 185.200 374.620,185.470 374.800,185.800 374.800 C 186.130 374.800,186.400 375.070,186.400 375.400 C 186.400 375.733,186.756 376.000,187.200 376.000 C 187.640 376.000,188.002 376.135,188.005 376.300 C 188.007 376.465,188.727 376.944,189.605 377.364 C 190.482 377.785,191.200 378.280,191.200 378.464 C 191.200 378.649,191.470 378.800,191.800 378.800 C 192.130 378.800,192.401 378.935,192.403 379.100 C 192.406 379.481,194.702 380.800,195.363 380.800 C 195.637 380.800,196.283 381.250,196.800 381.800 C 197.317 382.350,198.068 382.800,198.470 382.800 C 198.871 382.800,199.200 382.980,199.200 383.200 C 199.200 383.420,199.650 383.600,200.200 383.600 C 200.750 383.600,201.200 383.775,201.200 383.990 C 201.200 384.204,201.768 384.673,202.462 385.032 C 203.157 385.391,203.922 385.858,204.162 386.069 C 204.571 386.427,206.280 387.374,209.600 389.080 C 210.370 389.476,211.090 389.894,211.200 390.009 C 211.740 390.574,213.638 391.600,214.143 391.600 C 214.457 391.600,214.818 391.870,214.945 392.200 C 215.071 392.530,215.451 392.800,215.787 392.800 C 216.124 392.800,216.400 392.980,216.400 393.200 C 216.400 393.420,216.771 393.600,217.224 393.600 C 217.677 393.600,217.936 393.780,217.800 394.000 C 217.660 394.227,217.996 394.400,218.576 394.400 C 219.220 394.400,219.600 394.623,219.600 395.000 C 219.600 395.373,219.978 395.600,220.600 395.600 C 221.150 395.600,221.600 395.780,221.600 396.000 C 221.600 396.220,221.870 396.400,222.200 396.400 C 222.530 396.400,222.800 396.670,222.800 397.000 C 222.800 397.373,223.178 397.600,223.800 397.600 C 224.350 397.600,224.800 397.780,224.800 398.000 C 224.800 398.220,225.070 398.400,225.400 398.400 C 225.730 398.400,226.360 398.760,226.800 399.200 C 227.475 399.875,228.133 400.000,231.000 400.000 L 234.400 400.000 234.400 355.650 C 234.400 331.258,234.467 310.783,234.548 310.150 C 234.630 309.518,234.614 309.240,234.512 309.534 C 234.205 310.426,232.748 309.788,226.307 305.937 C 222.948 303.929,219.391 301.832,218.403 301.276 C 217.415 300.721,215.669 299.666,214.522 298.933 C 213.376 298.200,212.351 297.600,212.243 297.600 C 212.136 297.600,210.317 296.520,208.200 295.200 C 206.083 293.880,204.291 292.800,204.216 292.800 C 204.142 292.800,201.498 291.245,198.341 289.344 C 195.183 287.443,192.042 285.571,191.360 285.184 C 190.677 284.797,188.787 283.682,187.160 282.706 C 185.532 281.731,182.400 279.877,180.200 278.588 C 178.000 277.298,173.050 274.370,169.200 272.080 C 157.427 265.079,157.034 264.858,155.900 264.581 L 154.800 264.313 154.800 310.357 " stroke="none" fill="#74b843" fill-rule="evenodd"></path><path id="path4" d="M59.604 162.900 L 59.608 209.400 61.404 210.190 C 62.392 210.624,63.200 211.119,63.200 211.290 C 63.200 211.460,63.759 211.600,64.443 211.600 C 65.383 211.600,65.630 211.746,65.455 212.200 C 65.315 212.565,65.455 212.800,65.813 212.800 C 66.136 212.800,66.400 212.980,66.400 213.200 C 66.400 213.420,66.837 213.600,67.371 213.600 C 67.911 213.600,68.667 214.013,69.075 214.532 C 69.478 215.045,70.031 215.390,70.304 215.299 C 70.577 215.208,70.905 215.407,71.033 215.741 C 71.161 216.076,71.529 216.249,71.849 216.126 C 72.202 215.990,72.387 216.111,72.316 216.431 C 72.252 216.726,72.776 217.156,73.500 217.401 C 74.215 217.643,75.016 218.056,75.280 218.320 C 75.544 218.584,75.973 218.800,76.234 218.800 C 77.003 218.800,78.811 219.856,78.527 220.139 C 78.384 220.283,78.477 220.423,78.733 220.450 C 80.019 220.588,80.192 220.673,80.100 221.118 C 80.043 221.392,80.431 221.600,81.000 221.600 C 81.550 221.600,82.000 221.753,82.000 221.939 C 82.000 222.126,82.720 222.603,83.600 223.000 C 84.480 223.397,85.200 223.874,85.200 224.061 C 85.200 224.247,85.478 224.400,85.817 224.400 C 86.156 224.400,86.813 224.754,87.277 225.186 C 87.741 225.619,88.274 225.878,88.461 225.763 C 88.647 225.647,88.800 225.722,88.800 225.930 C 88.800 226.137,89.197 226.411,89.683 226.537 C 90.168 226.664,90.441 226.893,90.289 227.045 C 89.977 227.356,91.793 228.400,92.646 228.400 C 92.951 228.400,93.155 228.614,93.100 228.876 C 93.045 229.138,93.360 229.429,93.800 229.523 C 94.240 229.616,94.698 229.847,94.817 230.036 C 94.937 230.225,95.477 230.454,96.017 230.545 C 96.558 230.635,96.951 230.923,96.890 231.184 C 96.830 231.446,96.944 231.558,97.145 231.434 C 97.345 231.310,97.732 231.477,98.004 231.804 C 98.276 232.132,98.746 232.400,99.049 232.400 C 99.352 232.400,99.600 232.610,99.600 232.867 C 99.600 233.123,99.712 233.221,99.850 233.084 C 99.987 232.946,100.431 233.231,100.836 233.717 C 101.242 234.203,101.579 234.377,101.587 234.104 C 101.596 233.772,101.867 233.838,102.409 234.304 C 102.854 234.687,103.619 235.106,104.109 235.235 C 104.599 235.365,104.957 235.673,104.905 235.921 C 104.852 236.169,105.042 236.282,105.326 236.173 C 105.610 236.064,106.372 236.516,107.021 237.176 C 107.669 237.837,108.605 238.383,109.100 238.389 C 109.595 238.395,110.000 238.580,110.000 238.800 C 110.000 239.020,110.469 239.200,111.043 239.200 C 111.805 239.200,112.024 239.361,111.855 239.800 C 111.696 240.216,111.883 240.400,112.466 240.400 C 112.928 240.400,113.631 240.774,114.027 241.232 C 114.658 241.959,115.307 242.254,116.524 242.369 C 116.702 242.386,116.760 242.542,116.652 242.715 C 116.463 243.021,118.634 244.184,118.916 243.928 C 118.994 243.858,119.372 244.115,119.757 244.500 C 120.142 244.885,120.815 245.200,121.252 245.200 C 121.689 245.200,121.936 245.380,121.800 245.600 C 121.662 245.823,121.964 246.000,122.481 246.000 C 123.005 246.000,123.738 246.436,124.161 247.000 C 124.574 247.550,125.252 248.000,125.669 248.000 C 126.085 248.000,126.529 248.270,126.655 248.600 C 126.782 248.930,127.226 249.200,127.643 249.200 C 128.059 249.200,128.400 249.380,128.400 249.600 C 128.400 249.820,128.820 250.000,129.332 250.000 C 129.918 250.000,130.464 250.372,130.800 251.000 C 131.125 251.606,131.685 252.000,132.225 252.000 C 132.714 252.000,133.218 252.270,133.345 252.600 C 133.471 252.930,133.858 253.200,134.204 253.200 C 134.550 253.200,135.229 253.568,135.712 254.018 C 136.993 255.212,138.975 254.955,138.940 253.600 C 138.926 253.050,138.888 232.305,138.857 207.500 L 138.800 162.400 137.824 162.400 C 137.287 162.400,136.743 162.232,136.616 162.026 C 136.489 161.820,135.443 161.130,134.292 160.492 C 131.948 159.193,123.520 154.282,121.266 152.902 C 120.460 152.408,118.720 151.366,117.400 150.586 C 116.080 149.806,114.730 149.002,114.400 148.799 C 109.328 145.685,107.180 144.400,107.045 144.400 C 106.955 144.400,105.288 143.433,103.341 142.250 C 101.393 141.068,96.650 138.251,92.800 135.990 C 88.950 133.728,82.650 129.982,78.800 127.665 C 74.950 125.348,71.440 123.255,71.000 123.013 C 70.560 122.772,68.760 121.713,67.000 120.662 C 65.240 119.610,63.441 118.536,63.002 118.275 C 62.563 118.014,61.725 117.485,61.140 117.100 C 60.555 116.715,59.969 116.400,59.838 116.400 C 59.707 116.400,59.602 137.325,59.604 162.900 " stroke="none" fill="#fecd20" fill-rule="evenodd"></path><path id="path5" d="M327.400 1.200 C 327.255 1.434,327.670 1.600,328.400 1.600 C 329.130 1.600,329.545 1.434,329.400 1.200 C 329.264 0.980,328.814 0.800,328.400 0.800 C 327.986 0.800,327.536 0.980,327.400 1.200 M251.209 92.700 L 251.219 138.600 253.109 139.482 C 255.138 140.428,256.504 141.215,261.603 144.378 C 263.396 145.490,264.911 146.400,264.968 146.400 C 265.026 146.400,269.684 149.145,275.321 152.500 C 294.670 164.017,299.759 167.000,300.279 167.129 C 300.566 167.200,300.800 167.425,300.800 167.629 C 300.800 167.833,300.965 168.000,301.166 168.000 C 301.367 168.000,303.572 169.263,306.066 170.806 C 308.560 172.350,310.870 173.734,311.200 173.882 C 311.530 174.031,314.500 175.763,317.800 177.732 C 321.100 179.702,324.430 181.667,325.200 182.099 C 325.970 182.531,326.796 183.044,327.035 183.237 C 327.274 183.431,328.219 183.854,329.135 184.177 L 330.800 184.765 330.794 138.682 C 330.790 108.297,330.654 92.804,330.394 93.200 C 330.119 93.619,329.909 93.665,329.700 93.354 C 329.535 93.109,328.974 92.775,328.454 92.612 C 327.934 92.450,325.324 91.017,322.654 89.428 C 312.317 83.275,307.785 80.592,307.399 80.400 C 307.178 80.290,302.498 77.504,296.999 74.210 C 291.500 70.915,286.527 67.945,285.949 67.610 C 280.152 64.246,266.246 56.046,264.961 55.235 C 264.060 54.666,260.872 52.760,257.877 51.000 C 254.882 49.240,252.424 47.575,252.416 47.300 C 252.407 47.025,252.130 46.800,251.800 46.800 C 251.270 46.800,251.201 52.162,251.209 92.700 M251.200 276.423 C 251.200 315.157,251.289 322.800,251.742 322.800 C 252.039 322.800,252.769 323.250,253.362 323.800 C 253.956 324.350,254.747 324.806,255.121 324.813 C 255.968 324.829,257.200 325.736,257.200 326.344 C 257.200 326.595,257.526 326.800,257.925 326.800 C 258.323 326.800,259.024 327.149,259.482 327.576 C 259.940 328.003,260.424 328.243,260.557 328.109 C 260.691 327.976,260.800 328.077,260.800 328.333 C 260.800 328.590,261.171 328.800,261.624 328.800 C 262.077 328.800,262.336 328.980,262.200 329.200 C 262.064 329.420,262.278 329.603,262.676 329.607 C 263.074 329.611,263.824 330.061,264.342 330.607 C 264.860 331.153,265.618 331.600,266.026 331.600 C 266.435 331.600,267.116 331.973,267.541 332.429 C 267.966 332.885,268.578 333.297,268.901 333.344 C 269.223 333.392,269.796 333.739,270.172 334.115 C 270.549 334.492,271.114 334.800,271.429 334.800 C 271.743 334.800,272.000 334.980,272.000 335.200 C 272.000 335.420,272.135 335.579,272.300 335.553 C 273.204 335.410,274.015 335.652,273.800 336.000 C 273.664 336.220,273.833 336.400,274.176 336.400 C 274.519 336.400,274.800 336.591,274.800 336.824 C 274.800 337.057,274.980 337.136,275.200 337.000 C 275.420 336.864,275.600 336.954,275.600 337.200 C 275.600 337.446,275.769 337.543,275.975 337.415 C 276.182 337.288,276.497 337.440,276.675 337.753 C 276.854 338.067,277.450 338.390,278.000 338.471 C 278.550 338.552,278.957 338.833,278.905 339.095 C 278.852 339.357,279.054 339.477,279.353 339.363 C 279.652 339.248,280.004 339.434,280.136 339.777 C 280.267 340.120,280.629 340.400,280.938 340.400 C 281.248 340.400,281.724 340.668,281.996 340.996 C 282.268 341.323,282.630 341.505,282.800 341.400 C 282.970 341.295,283.330 341.475,283.600 341.800 C 283.870 342.125,284.236 342.302,284.413 342.192 C 284.590 342.082,285.052 342.309,285.439 342.696 C 285.826 343.083,286.246 343.400,286.371 343.401 C 286.497 343.401,287.140 343.782,287.800 344.248 C 288.460 344.714,289.408 345.222,289.906 345.376 C 290.404 345.531,290.708 345.825,290.582 346.029 C 290.456 346.233,290.819 346.400,291.389 346.400 C 291.959 346.400,292.528 346.669,292.654 346.998 C 292.781 347.326,293.012 347.516,293.169 347.419 C 293.326 347.322,293.929 347.683,294.510 348.221 C 295.090 348.760,295.933 349.200,296.383 349.200 C 296.832 349.200,297.201 349.425,297.203 349.700 C 297.206 350.205,298.954 351.200,299.837 351.200 C 300.100 351.200,300.418 351.470,300.545 351.800 C 300.671 352.130,301.101 352.400,301.499 352.400 C 301.897 352.400,302.476 352.750,302.785 353.179 C 303.093 353.607,303.493 353.866,303.673 353.755 C 303.853 353.644,304.000 353.743,304.000 353.976 C 304.000 354.209,304.270 354.400,304.600 354.400 C 304.930 354.400,305.200 354.580,305.200 354.800 C 305.200 355.020,305.566 355.200,306.013 355.200 C 306.459 355.200,306.929 355.470,307.055 355.800 C 307.182 356.130,307.536 356.400,307.843 356.400 C 308.149 356.400,308.400 356.580,308.400 356.800 C 308.400 357.020,308.646 357.200,308.946 357.200 C 309.246 357.200,310.003 357.602,310.627 358.093 C 311.251 358.584,311.604 358.719,311.412 358.393 C 311.135 357.923,311.221 357.933,311.831 358.442 C 312.254 358.795,313.185 359.334,313.900 359.639 C 314.615 359.945,315.200 360.357,315.200 360.554 C 315.200 361.030,316.465 361.971,317.127 361.987 C 317.416 361.994,318.243 362.450,318.964 363.000 C 319.686 363.550,320.754 364.000,321.338 364.000 C 322.015 364.000,322.400 364.217,322.400 364.600 C 322.400 364.930,322.749 365.200,323.176 365.200 C 323.603 365.200,324.064 365.380,324.200 365.600 C 324.336 365.820,324.797 366.000,325.224 366.000 C 325.651 366.000,326.000 366.205,326.000 366.456 C 326.000 367.278,327.370 367.974,329.000 367.981 C 329.975 367.985,330.400 367.861,330.086 367.662 C 329.790 367.474,329.687 367.039,329.842 366.634 C 330.055 366.080,330.182 366.045,330.450 366.466 C 330.636 366.760,330.791 346.362,330.794 321.137 C 330.800 276.418,330.781 275.280,330.047 275.472 C 329.632 275.580,328.687 275.358,327.947 274.977 C 326.395 274.181,315.092 267.423,313.600 266.400 C 313.050 266.023,311.790 265.259,310.800 264.701 C 309.810 264.144,306.480 262.202,303.400 260.386 C 300.320 258.570,297.260 256.776,296.600 256.400 C 295.940 256.024,292.610 254.047,289.200 252.006 C 285.790 249.966,282.460 247.988,281.800 247.611 C 281.140 247.233,278.260 245.520,275.400 243.803 C 272.540 242.087,269.390 240.235,268.400 239.688 C 267.410 239.141,266.420 238.553,266.200 238.382 C 265.045 237.485,252.532 230.302,251.919 230.184 C 251.230 230.052,251.200 232.011,251.200 276.423 " stroke="none" fill="#e40327" fill-rule="evenodd"></path></g></svg>