<svg xmlns="http://www.w3.org/2000/svg" width="400" height="407.588" viewBox="0 0 400 407.588"><g fill-rule="evenodd"><path d="M188.323 144.032c-.086.258-1.066.439-2.326.429-1.198-.009-2.286.159-2.419.375-.266.429-4.397 1.191-4.878.899-.165-.1-.3.098-.3.441 0 .541-.897.774-2.264.588-.145-.02-.424.25-.62.6s-.786.636-1.312.636-1.068.18-1.204.4c-.136.22-.687.4-1.224.4-.567 0-.934.209-.876.5.056.281-.381.555-1 .627-.63.072-1.1.371-1.1.7 0 .487-1.025.79-2.1.62-.165-.026-.3.104-.3.289 0 .184-.718.679-1.595 1.1-.878.42-1.598.96-1.6 1.2-.003.239-.709.778-1.569 1.196-.86.418-1.48.897-1.376 1.064.103.167-.03.304-.296.304-.517 0-3.413 2.817-3.292 3.203.04.127-.299.259-.753.293-.454.034-1.206.541-1.672 1.127a83.998 83.998 0 0 1-1.539 1.872c-.38.445-.595.965-.476 1.157.118.191-.065.348-.408.348-.343 0-.624.18-.624.4 0 .22-.281.4-.624.4-.343 0-.532.148-.42.329.112.18-.144.625-.568.989-.438.374-.669.926-.535 1.275.172.449.057.547-.425.362-.363-.139-.632-.096-.597.096.157.862-.079 1.349-.655 1.349-.343 0-.511.181-.374.403.137.221-.033.511-.377.643s-.63.625-.636 1.097c-.006.471-.546 1.382-1.2 2.024-.654.641-1.189 1.419-1.189 1.728 0 .309-.28.842-.623 1.185-.343.343-.526.877-.407 1.187.119.31-.05.666-.377.791-.363.139-.593.754-.593 1.585 0 .746-.177 1.357-.392 1.357-.337 0-.945 1.54-.993 2.515-.008.173-.196.443-.416.6-.221.157-.465.825-.541 1.485-.077.66-.301 1.503-.499 1.874-.197.37-.359 1.293-.359 2.051 0 .757-.27 1.601-.6 1.875-.469.389-.6 1.488-.6 5.02 0 3.147-.157 4.684-.515 5.051-.73.75-.891 3.955-.22 4.368.38.234.593 1.75.735 5.245.13 3.206.35 4.889.632 4.839.26-.047.469.82.524 2.165.05 1.234.33 2.585.623 3.003.293.419.448 1.082.346 1.475-.103.393.093.995.435 1.337.342.342.666 1.199.719 1.906.054.706.328 1.372.61 1.48.281.108.511.527.511.93 0 .404.18.845.4.981.22.136.4.687.4 1.224 0 .601.231.976.6.976.33 0 .579.135.553.3-.175 1.103.133 2.1.647 2.1.366 0 .6.373.6.957 0 .527.27 1.061.6 1.188.33.126.6.525.6.885s.45 1.009 1 1.441c.55.433 1 1.044 1 1.358 0 .314.27.571.6.571.33 0 .622.27.65.6.108 1.292.17 1.442.75 1.808.33.209.465.383.3.386-.452.009 1.238 1.606 1.7 1.606.22 0 .4.27.4.6 0 .33.135.603.3.607.478.011 4.1 3.528 4.1 3.982 0 .226.281.411.624.411.343 0 .512.18.376.4-.136.22.033.4.376.4.778 0 2.252 1.428 1.891 1.831-.147.163-.057.177.199.03.257-.146.997.18 1.645.725.648.546 1.289.881 1.424.746.135-.136.36.049.498.411.139.361.503.657.81.657.306 0 .557.168.557.373s.363.488.806.629c.443.141.705.419.581.619s.518.482 1.427.628c1.116.178 1.478.373 1.118.601-.481.306 1.122.581 2.217.381.192-.035.239.223.105.573-.151.393-.082.537.18.375.234-.145.817.092 1.296.526.478.434 1.575.897 2.438 1.028.862.131 1.698.451 1.859.71.16.26.681.37 1.157.245.512-.134.944-.02 1.059.28.116.302 1.015.535 2.229.578 2.216.079 2.866.307 2.511.882-.133.215.863.372 2.36.372 1.717 0 2.647.169 2.757.5.257.77 15.719.824 16.485.057.363-.362 1.469-.557 3.167-.557 1.85 0 2.702-.167 2.93-.574.194-.348 1.109-.624 2.319-.7 1.185-.075 1.966-.306 1.918-.569-.049-.27.458-.4 1.304-.333.777.062 1.626-.13 1.933-.437.3-.3 1.012-.609 1.58-.685.569-.076 1.176-.294 1.349-.484.173-.191.09-.217-.185-.059-.275.159-.5.098-.5-.135s.527-.424 1.171-.424c.645 0 1.442-.27 1.772-.6.33-.33.973-.6 1.428-.6.456 0 .831-.135.833-.3.002-.165.812-.655 1.8-1.09.988-.434 1.796-1.019 1.796-1.3 0-.28.45-.51 1-.51.622 0 1-.227 1-.6 0-.33.27-.6.6-.6.33 0 .6-.159.6-.353 0-.195.315-.468.7-.607 1.026-.371 2.758-1.427 2.351-1.434-.192-.003-.121-.28.157-.616.278-.335.588-.527.689-.427.243.244 2.503-2.083 2.503-2.577 0-.212.27-.386.6-.386.33 0 .6-.281.6-.624 0-.343.148-.532.329-.42.367.227 1.671-1.146 1.671-1.761 0-.217.193-.395.429-.395.464 0 1.771-1.181 1.771-1.6 0-.141.315-.572.7-.957.385-.385.7-.968.7-1.295 0-.327.18-.484.4-.348.22.136.4-.134.4-.6 0-.466.148-.756.329-.644.422.261 1.589-1.096 1.748-2.034.068-.397.348-.96.623-1.251.275-.29.5-.766.5-1.057 0-.291.27-.632.6-.759.33-.126.6-.691.6-1.255s.27-1.129.6-1.255c.33-.127.6-.549.6-.939 0-.389.278-.939.618-1.221.34-.282.531-.741.424-1.02-.107-.279.065-.722.382-.985s.576-1.002.576-1.642c0-.639.234-1.253.519-1.362.286-.11.563-.869.618-1.688.054-.818.271-1.548.483-1.622.212-.074.283-.299.159-.5-.124-.201-.069-.366.123-.366s.393-.851.446-1.891c.054-1.04.223-1.985.375-2.1.362-.273.418-.967.501-6.119.053-3.301.182-4.217.549-3.912.365.303.463-.15.407-1.89-.111-3.514-.151-3.753-.58-3.488-.258.159-.4-1.388-.4-4.353 0-3.045-.156-4.696-.462-4.885-.305-.189-.352-.108-.138.238.202.327.167.427-.095.265-.23-.142-.353-.93-.274-1.751.084-.87-.1-1.866-.443-2.389-.323-.493-.588-1.544-.588-2.335 0-.845-.163-1.337-.395-1.193-.227.14-.294-.02-.158-.376.131-.342.039-.621-.204-.621-.244 0-.443-.521-.443-1.157 0-.654-.258-1.256-.593-1.385-.364-.14-.494-.488-.335-.901.16-.416-.016-.873-.46-1.198-.395-.289-.77-.998-.834-1.576-.063-.578-.4-1.365-.747-1.749-.348-.384-.512-.819-.365-.966.147-.148-.033-.268-.399-.268-.391 0-.667-.318-.667-.767 0-.421-.188-.829-.418-.906-.23-.076-.448-.541-.485-1.033-.037-.492-.299-.894-.582-.894s-.515-.167-.515-.371c0-.205-.225-.61-.5-.9-.275-.291-.812-1.204-1.194-2.029-.381-.825-.951-1.5-1.266-1.5-.315 0-.813-.542-1.106-1.205-.298-.673-.754-1.12-1.034-1.012-.275.105-.5-.094-.5-.443 0-.61-2.283-2.92-2.9-2.934-.165-.003-.3-.287-.3-.63s-.18-.512-.4-.376c-.22.136-.4-.033-.4-.376a.614.614 0 0 0-.6-.624c-.33 0-.6-.27-.6-.6 0-.33-.27-.6-.6-.6-.33 0-.6-.172-.6-.381 0-.21-.616-.674-1.369-1.031-.753-.357-1.467-.906-1.588-1.219-.12-.313-.494-.569-.83-.569-.337 0-.613-.247-.613-.55 0-.303-.552-.66-1.227-.795-.797-.16-1.125-.409-.937-.713.198-.321.026-.399-.548-.249-.51.133-.919.002-1.05-.337-.117-.306-.469-.556-.783-.556-.313 0-.673-.27-.8-.6-.126-.33-.666-.6-1.2-.6-.533 0-1.073-.27-1.2-.6-.126-.33-.566-.6-.976-.6-.41 0-.881-.135-1.046-.3-.315-.315-.533-.369-1.833-.45-.44-.027-.8-.32-.8-.65 0-.444-.467-.6-1.8-.6-1 0-1.8-.188-1.8-.424 0-.233.208-.295.462-.138.254.157.355.114.225-.096-.129-.211-.986-.427-1.904-.481-.918-.054-2.101-.382-2.63-.729-.687-.45-1.584-.579-3.135-.45-1.423.118-2.145.031-2.095-.251.11-.618-18.795-.816-19-.199" fill="#f49c04"/><path d="M190.4 6.6c0 .453-.489.6-2 .6-1.1 0-2 .18-2 .4 0 .22-.54.4-1.2.4-.8 0-1.2.2-1.2.6 0 .337-.357.6-.816.6-.448 0-1.542.72-2.431 1.6-.889.88-1.782 1.6-1.985 1.6-.202 0-.368.27-.368.6 0 .33-.27.6-.6.6-.33 0-.6.178-.6.395 0 .217-.72 1.072-1.599 1.9-.899.846-1.6 1.88-1.6 2.362-.001.472-.271.961-.601 1.088-.33.126-.6.596-.6 1.042 0 .447-.18.813-.4.813-.22 0-.4.431-.4.957 0 .527-.27 1.061-.6 1.188-.378.145-.6.757-.6 1.655s-.222 1.51-.6 1.655c-.388.149-.6.769-.6 1.754 0 .839-.217 1.597-.483 1.685-.319.107-.466 1.039-.432 2.734.032 1.644-.159 2.899-.529 3.477-.854 1.331-.781 19.41.081 20.126.45.373.546 1.205.418 3.611-.118 2.232-.01 3.332.377 3.843.314.414.548 1.735.555 3.139.008 1.493.238 2.721.6 3.2.323.427.593 1.566.6 2.532.008 1.058.245 1.932.597 2.2.34.258.623 1.24.675 2.344.05 1.045.237 1.9.416 1.9s.325.506.325 1.124c0 .617.264 1.472.587 1.9.323.427.593 1.367.6 2.089.008.788.253 1.404.613 1.542.33.127.6.625.6 1.108 0 .482.185 1.062.411 1.288.226.226.451.981.5 1.679.049.7.313 1.269.589 1.269.289.001.5.508.5 1.201 0 .8.2 1.2.6 1.2.394 0 .6.395.6 1.151 0 .633.27 1.375.6 1.649.33.274.6.794.6 1.156 0 .362.45 1.321 1 2.13.55.809 1 1.841 1 2.293 0 .463.261.821.6.821.333 0 .6.356.6.8 0 .44.248.8.55.8.317 0 .55.415.55.979 0 .538.285 1.263.633 1.611.348.348.531.898.407 1.222-.141.367.016.588.417.588.354 0 .643.27.643.6 0 .33.27.6.6.6.373 0 .6.378.6 1 0 .55.18 1 .4 1 .22 0 .4.27.4.6 0 .33.27.6.6.6.336 0 .6.357.6.813 0 .446.27.916.6 1.042.33.127.6.416.6.642 0 .226.45.828 1 1.338.55.51 1 1.033 1 1.163 0 .919 2.721 3.771 3.6 3.773 1.029.002 2.8-1.194 2.8-1.892 0-.217.281-.501.625-.633s.523-.406.398-.61c-.126-.203.313-.91.974-1.572.662-.661 1.203-1.377 1.203-1.59 0-.214.27-.492.6-.619.33-.126.6-.596.6-1.042 0-.447.225-.815.5-.817.275-.002.85-.801 1.279-1.775.428-.974.923-1.682 1.1-1.572.176.109.321-.178.321-.638s.27-.94.6-1.066c.33-.127.6-.571.6-.988 0-.416.177-.757.392-.757.216 0 .506-.45.644-1s.411-1 .607-1c.197 0 .357-.45.357-1 0-.622.227-1 .6-1 .395 0 .6-.395.6-1.157 0-.66.258-1.256.6-1.388.33-.126.6-.576.6-1 0-.423.27-.873.6-1 .33-.126.6-.696.6-1.266 0-.589.173-.93.4-.789.233.144.4-.263.4-.976 0-.821.197-1.224.6-1.224.393 0 .6-.393.6-1.14 0-.628.45-1.987 1-3.022.55-1.034 1-2.416 1-3.072 0-.69.252-1.288.6-1.421.387-.149.6-.768.6-1.745 0-.977.213-1.596.6-1.745.374-.143.6-.753.6-1.619 0-.764.18-1.5.4-1.636.22-.136.4-1.137.4-2.224 0-1.49.148-1.976.6-1.976.461 0 .6-.514.6-2.224 0-1.27.16-2.125.372-1.993.607.375.777-.272.865-3.287.051-1.745.266-2.927.552-3.036.31-.12.502-1.65.566-4.52.054-2.387.266-4.4.471-4.473.518-.185.493-17.146-.026-17.467-.22-.136-.4-1.394-.4-2.795 0-1.731-.192-2.74-.6-3.148-.33-.33-.6-1.208-.6-1.952s-.264-1.701-.587-2.129c-.323-.427-.593-1.342-.6-2.033-.008-.739-.26-1.352-.613-1.488-.33-.126-.6-.686-.6-1.242 0-.557-.18-1.013-.4-1.013-.22 0-.4-.45-.4-1 0-.622-.227-1-.6-1s-.6-.378-.6-1c0-.55-.17-1-.377-1-.208 0-.697-.54-1.087-1.2-.39-.66-.94-1.2-1.222-1.2-.283 0-.514-.27-.514-.6 0-.33-.27-.6-.6-.6-.33 0-.6-.27-.6-.6 0-.33-.161-.6-.358-.6-.197 0-.782-.447-1.3-.993s-1.178-.996-1.466-1c-.288-.004-.411-.188-.274-.41.137-.221-.078-.51-.477-.64-.399-.131-1.597-.669-2.662-1.197-1.138-.564-2.646-.96-3.657-.96-1.16 0-1.795-.195-1.951-.6-.189-.494-1.223-.6-5.842-.6-4.723 0-5.613.095-5.613.6m85.756 22.771c-.121.314-.543.508-.939.432-.396-.076-1.221.122-1.833.439-.612.318-1.522.611-2.02.653-.499.041-.875.251-.836.466.04.215-.288.467-.728.56-.44.092-.944.418-1.12.724-.176.305-.581.555-.9.555-.319 0-.58.168-.58.373s-.405.5-.9.656c-.495.155-1.296.707-1.781 1.227-.484.519-1.039.944-1.232.944-.194 0-.593.45-.887 1-.294.55-.775 1-1.068 1-.292 0-.532.27-.532.6 0 .33-.27.6-.6.6-.33 0-.6.27-.6.6 0 .33-.281.6-.624.6-.343 0-.512.18-.376.4.136.22-.033.4-.376.4a.63.63 0 0 0-.624.631c0 .347-.495 1.151-1.1 1.787-1.67 1.756-2.1 2.313-2.1 2.722 0 .206-.27.478-.6.605-.33.126-.6.601-.6 1.055 0 .454-.27.929-.6 1.055-.33.127-.6.661-.6 1.188 0 .575-.235.957-.587.957-.358 0-.498.235-.358.6.127.33.049.6-.173.6-.222 0-.592.54-.822 1.2-.23.66-.608 1.2-.839 1.2-.232 0-.4.135-.374.3.143.904-.099 1.715-.447 1.5-.22-.136-.414-.102-.431.076-.101 1.073-.367 1.882-.741 2.256-.236.236-.428.823-.428 1.305 0 .483-.27.981-.6 1.108-.351.134-.6.734-.6 1.442 0 .812-.199 1.213-.6 1.213-.396 0-.6.396-.6 1.167 0 .641-.184 1.228-.409 1.303-.224.074-.433.801-.464 1.615-.031.822-.293 1.57-.591 1.684-.308.118-.536.807-.536 1.618 0 .989-.18 1.413-.6 1.413-.431 0-.6.441-.6 1.567 0 .861-.198 1.632-.439 1.713-.242.08-.535.995-.652 2.033-.117 1.038-.37 1.887-.561 1.887-.191 0-.348 1.08-.348 2.4 0 1.867-.133 2.4-.6 2.4-.521 0-.92 2.775-.647 4.5.026.165-.178.255-.453.2-.364-.073-.532.879-.617 3.487-.069 2.129-.302 3.701-.572 3.868-.526.325-.726 29.489-.204 29.811.168.104.21.344.093.534-.117.19-.03.458.193.596.224.138.407 1.231.407 2.428v2.176l1.99-.087c1.182-.051 2.071-.295 2.188-.6.108-.282.813-.513 1.567-.513.848 0 1.457-.228 1.6-.6.126-.33.585-.6 1.019-.6.434 0 .891-.166 1.017-.369.125-.203.766-.488 1.424-.632.657-.144 1.195-.428 1.195-.631 0-.202.45-.368 1-.368.622 0 1-.227 1-.6 0-.33.341-.6.757-.6.417 0 .861-.27.988-.6.126-.33.696-.6 1.266-.6.589 0 .93-.173.789-.4-.14-.227.196-.4.776-.4.644 0 1.024-.223 1.024-.6 0-.373.378-.6 1-.6.553 0 1-.232 1-.52 0-.285.642-.751 1.426-1.035.784-.284 1.524-.77 1.643-1.08.119-.311.535-.565.925-.565.389 0 .932-.27 1.206-.6.274-.33.746-.6 1.049-.6.303 0 .551-.27.551-.6 0-.333.356-.6.8-.6.44 0 .8-.18.8-.4 0-.22.23-.4.511-.4.553 0 1.889-1.387 1.889-1.961 0-.194.409-.455.908-.58.499-.125 1.302-.595 1.783-1.044.482-.448 1.063-.815 1.292-.815.229 0 .417-.27.417-.6 0-.33.174-.6.386-.6.498 0 2.814-2.258 2.814-2.743 0-.204.457-.485 1.016-.625.559-.141.909-.43.777-.644-.132-.213.141-.388.607-.388.499 0 .739-.176.583-.427-.145-.235.113-.525.572-.645.46-.121.737-.378.617-.573-.121-.195-.005-.355.257-.355.56 0 2.951-2.451 3.314-3.397.138-.359.433-.542.654-.405.222.137.403-.031.403-.374 0-.343.168-.624.373-.624s.487-.36.627-.8c.14-.44.512-.8.827-.8.315 0 .573-.27.573-.6 0-.33.18-.6.4-.6.22 0 .4-.18.4-.4 0-.475 1.588-2.136 1.625-1.7.014.165.193-.117.397-.626.204-.509.557-.81.785-.67.227.141.387.107.356-.074-.192-1.102.116-2.13.637-2.13.33 0 .6-.18.6-.4 0-.22.225-.401.5-.403.516-.003 1.5-1.758 1.5-2.677 0-.286.27-.52.6-.52.33 0 .6-.27.6-.6 0-.33.27-.6.6-.6.354 0 .603-.37.607-.9.004-.495.454-1.324 1-1.842s.993-1.373.993-1.9c0-.565.235-.958.573-.958.315 0 .687-.36.827-.8.14-.44.422-.8.627-.8.205 0 .373-.461.373-1.024s.168-.919.374-.792.431-.357.5-1.076c.076-.784.326-1.268.626-1.208.275.055.5-.273.5-.729 0-.455.27-1.098.6-1.428.33-.33.6-1.05.6-1.6s.27-1.27.6-1.6c.33-.33.6-1.127.6-1.772 0-.644.18-1.171.4-1.171.22 0 .4-.99.4-2.2 0-1.637.146-2.2.57-2.2.472 0 .577-1.366.613-8 .039-6.943-.037-8-.569-8-.45 0-.614-.429-.614-1.6 0-.88-.16-1.6-.355-1.6-.196 0-.481-.669-.635-1.486-.153-.817-.713-1.888-1.244-2.381-.531-.492-.966-1.083-.966-1.314 0-.23-.27-.419-.6-.419-.33 0-.6-.341-.6-.757 0-.417-.27-.861-.6-.988-.33-.126-.6-.516-.6-.866s-.18-.525-.4-.389c-.22.136-.4.074-.4-.137 0-.211-.675-.78-1.5-1.265-.825-.484-1.644-1.132-1.82-1.439-.176-.308-.761-.559-1.3-.559-.604 0-.98-.23-.98-.6 0-.34-.359-.6-.829-.6-.455 0-1.077-.249-1.381-.553-.304-.304-1.101-.506-1.771-.449-.819.07-1.219-.077-1.219-.447 0-.829-13.526-.81-13.844.02m-173.599 1.997c-.156.406-.733.632-1.612.632-.849 0-1.458.228-1.6.6-.127.33-.661.6-1.188.6-.526 0-.957.18-.957.4 0 .22-.338.4-.751.4s-.975.27-1.249.6c-.274.33-.746.6-1.049.6-.303 0-.551.27-.551.6 0 .33-.18.6-.4.6-.22 0-.4.27-.4.6 0 .33-.294.6-.654.6-.788 0-2.546 1.809-2.546 2.621 0 .318-.27.579-.6.579-.33 0-.6.251-.6.557 0 .307-.27.661-.6.788-.33.126-.6.581-.6 1.009 0 .429-.209.849-.465.934-.425.142-.713.914-.825 2.212-.024.275-.193.5-.377.5-.183 0-.333.9-.333 2 0 1.511-.147 2-.6 2-.506 0-.6.908-.6 5.771 0 4.597.122 5.894.6 6.372.369.369.6 1.35.6 2.548 0 1.072.197 2.146.438 2.387.241.241.528 1.132.638 1.98.109.848.362 1.713.561 1.922.2.209.363.781.363 1.271 0 .491.271 1.163.602 1.494.332.331.64 1.06.687 1.619.046.559.315 1.105.597 1.214.283.108.514.653.514 1.209 0 .557.16 1.013.357 1.013.196 0 .469.45.607 1s.428 1 .644 1c.215 0 .392.27.392.6 0 .33.27.6.6.6.373 0 .6.378.6 1 0 .55.177 1 .392 1 .216 0 .506.45.644 1s.411 1 .607 1c.197 0 .357.18.357.4 0 .22.356.756.791 1.191.484.484.69 1.053.532 1.466-.168.436-.103.578.182.402.25-.155.75.249 1.154.934.393.664.945 1.207 1.227 1.207.283 0 .514.405.515.9 0 .532.655 1.516 1.6 2.405.879.828 1.599 1.689 1.599 1.913 0 .225.54.937 1.2 1.582.66.645 1.2 1.283 1.2 1.417 0 .424 2.533 2.788 2.874 2.683.179-.055.326.17.326.5 0 .33.27.6.6.6.33 0 .555.147.5.326-.131.426 2.312 2.874 2.869 2.874.237 0 .431.202.431.45 0 .397 1.479 1.913 5.008 5.133.592.54 1.296 1.015 1.563 1.054.267.039 1.446.992 2.62 2.117 1.174 1.125 2.466 2.046 2.871 2.046.406 0 .738.27.738.6 0 .33.251.6.557.6.307 0 .661.27.788.6.126.33.596.6 1.042.6.47 0 .813.263.813.624 0 .343.181.511.403.374.221-.137.511.033.643.377s.589.625 1.016.625c.427 0 1.173.419 1.657.932 1.031 1.09 3.286 2.268 4.342 2.268.407 0 .739.231.739.512 0 .282.495.719 1.1.972.605.253 1.55.736 2.1 1.073.55.338 1.861.988 2.914 1.445 1.052.457 1.819.983 1.704 1.169-.115.186.014.331.286.321 1.806-.065 2.696.169 2.696.708 0 .33.27.6.6.6.33 0 .6.18.6.4 0 .22.135.379.3.353 1.367-.216 2.9.126 2.9.647 0 .433.444.6 1.6.6 1.501 0 1.6-.072 1.6-1.167 0-.641.214-1.238.475-1.325.323-.107.524-1.761.624-5.133.082-2.736.326-5.34.544-5.785.748-1.53-.286-24.195-1.143-25.051-.315-.314-.5-1.656-.5-3.619 0-2.507-.118-3.12-.6-3.12-.461 0-.6-.511-.6-2.2s-.139-2.2-.6-2.2c-.461 0-.6-.511-.6-2.2 0-1.21-.17-2.2-.378-2.2s-.433-.855-.5-1.9-.302-1.851-.522-1.79c-.22.06-.49-.75-.6-1.8-.129-1.235-.377-1.875-.7-1.81-.305.061-.5-.337-.5-1.02 0-.616-.185-1.305-.411-1.531-.226-.226-.451-.981-.5-1.679-.049-.7-.313-1.269-.589-1.269-.289-.001-.5-.508-.5-1.201 0-.8-.2-1.2-.6-1.2-.369 0-.6-.375-.6-.976 0-.537-.183-1.09-.407-1.228-.223-.138-.302-.419-.176-.624.127-.204.04-.372-.193-.372s-.424-.45-.424-1-.168-1-.373-1c-.206 0-.431-.495-.5-1.1-.072-.619-.346-1.056-.627-1-.311.062-.5-.353-.5-1.1 0-.8-.2-1.2-.6-1.2-.33 0-.6-.242-.6-.539 0-.802-1.202-3.061-1.629-3.061-.204 0-.371-.45-.371-1 0-.622-.227-1-.6-1-.33 0-.6-.193-.6-.429 0-.235-.272-.7-.604-1.032-.332-.332-.5-.77-.374-.974.126-.204-.053-.479-.397-.611-.344-.132-.625-.49-.625-.797 0-.306-.27-.557-.6-.557-.33 0-.6-.281-.6-.624 0-.343-.181-.511-.403-.374-.221.137-.527-.078-.68-.477-.483-1.265-5.034-6.125-5.736-6.125-.231 0-.836-.45-1.346-1-.51-.55-1.131-1-1.381-1s-.454-.27-.454-.6c0-.373-.378-.6-1-.6s-1-.227-1-.6c0-.33-.27-.6-.6-.6-.33 0-.6-.18-.6-.4 0-.22-.72-.4-1.6-.4-1.156 0-1.6-.167-1.6-.6 0-.368-.374-.6-.967-.6-.531 0-1.041-.225-1.133-.5-.279-.84-14.623-.967-14.943-.132M338.95 92.185c-.118.31-.943.529-2.069.552-1.03.021-1.934.223-2.01.45-.076.227-.74.413-1.476.413s-1.608.27-1.938.6c-.33.33-.938.6-1.352.6-.414 0-1.101.264-1.529.587-.427.323-1.282.593-1.9.6-.644.008-1.018.183-.876.413.144.233-.263.4-.976.4-.821 0-1.224.197-1.224.6 0 .373-.378.6-1 .6s-1 .227-1 .6c0 .515-.3.641-1.41.59-.116-.005-.632.445-1.146 1-.515.556-1.236 1.01-1.603 1.01-.368 0-1.196.54-1.841 1.2-.645.66-1.473 1.2-1.841 1.2-.367 0-1.084.45-1.594 1s-1.165 1-1.457 1c-.292 0-.811.315-1.154.7-1.096 1.229-2.64 2.41-3.516 2.688-.467.148-.746.437-.62.641.126.204-.026.371-.338.371-.313 0-.906.45-1.319 1-.413.55-.978 1-1.256 1s-.505.27-.505.6c0 .33-.27.6-.6.6-.33 0-.6.27-.6.6 0 .33-.251.6-.557.6-.307 0-.661.27-.788.6-.126.33-.566.6-.976.6-.41 0-.776.27-.812.6l-.134 1.182c-.036.321-.231.481-.432.357-.201-.124-.633.157-.96.624-.328.468-.745.758-.926.646-.182-.112-.439.076-.57.419-.132.342-.425.508-.652.368-.227-.141-.38-.107-.339.074.208.937-2.318 4.13-3.268 4.13-.212 0-.386.27-.386.6 0 .33-.27.6-.6.6-.33 0-.6.281-.6.624 0 .343-.18.512-.4.376-.22-.136-.4.039-.4.389 0 .35-.27.74-.6.866-.33.127-.6.661-.6 1.188 0 .526-.18.957-.4.957-.519 0-2 1.481-2 2 0 .22-.18.4-.4.4-.22 0-.408.315-.417.7-.009.385-.549 1.142-1.2 1.681-.651.54-1.183 1.286-1.183 1.658 0 .372-.447 1.101-.993 1.619s-.996 1.257-1 1.642c-.004.385-.221.655-.483.6-.262-.055-.552.247-.643.672-.092.424-.42 1.024-.728 1.332-.308.308-.457.727-.331.931.126.204-.053.479-.397.611-.344.132-.625.651-.625 1.154 0 .503-.27 1.018-.6 1.145-.33.126-.6.428-.6.671 0 .243-.27.711-.6 1.041-.33.33-.6.947-.6 1.372 0 .424-.18.771-.4.771-.22 0-.4.338-.4.751s-.27.975-.6 1.249c-.33.274-.6 1.016-.6 1.649 0 .756-.206 1.151-.6 1.151-.33 0-.6.339-.6.754s-.245 1.227-.545 1.804c-.299.578-.495 1.498-.435 2.046.071.643-.091.996-.455.996-.379 0-.565.461-.565 1.4 0 1.276.102 1.4 1.151 1.4.633 0 1.375.27 1.649.6.394.474 1.539.6 5.473.6 2.754 0 4.877.157 4.757.351-.361.585 1.996.849 7.52.844 5.414-.006 7.202-.226 6.822-.84-.124-.2 2.322-.355 5.604-.355 4.91 0 5.824-.094 5.824-.6 0-.483.622-.6 3.2-.6 1.867 0 3.2-.167 3.2-.4 0-.22.906-.4 2.013-.4 1.419 0 2.08-.177 2.242-.6.166-.431.839-.6 2.388-.6 1.651 0 2.157-.141 2.157-.6 0-.433.444-.6 1.6-.6.88 0 1.6-.18 1.6-.4 0-.22.636-.4 1.413-.4.886 0 1.498-.223 1.642-.6.15-.391.773-.6 1.788-.6 1.117 0 1.557-.169 1.557-.6 0-.417.42-.6 1.376-.6.757 0 1.488-.18 1.624-.4.136-.22.584-.4.995-.4.411 0 1.018-.27 1.348-.6.33-.33 1.057-.6 1.616-.6.739 0 .953-.164.786-.6-.174-.452.069-.6.984-.6.667 0 1.503-.289 1.857-.643.354-.354 1.069-.669 1.59-.7.521-.031.864-.192.762-.357-.102-.165.073-.3.389-.3s.799-.27 1.073-.6c.274-.33.836-.6 1.249-.6.413 0 .751-.27.751-.6 0-.4.4-.6 1.2-.6.66 0 1.2-.177 1.2-.392 0-.216.449-.505.997-.643.549-.138.898-.411.777-.608-.122-.196.149-.357.602-.357.466 0 .824-.261.824-.6 0-.33.315-.603.7-.607.385-.004 1.124-.454 1.642-1 .518-.546 1.193-.993 1.5-.993.307 0 .558-.27.558-.6 0-.33.251-.6.557-.6.307 0 .661-.27.788-.6.126-.33.479-.6.783-.6.304 0 .963-.536 1.465-1.191.502-.655 1.073-1.092 1.27-.97.196.121.311.072.255-.109-.171-.557 1.423-2.93 1.968-2.93.283 0 .514-.27.514-.6 0-.33.18-.6.4-.6.22 0 .4-.27.4-.6 0-.33.27-.6.6-.6.333 0 .6-.356.6-.8 0-.44.367-1.167.815-1.615.448-.448.707-.988.576-1.2-.131-.212-.048-.385.185-.385.233 0 .424-.54.424-1.2 0-.8.2-1.2.6-1.2.36 0 .6-.369.6-.924 0-.507.264-1.272.587-1.7.879-1.161.891-14.576.013-14.576-.433 0-.6-.444-.6-1.6 0-1.156-.167-1.6-.6-1.6-.373 0-.6-.378-.6-1 0-.55-.16-1-.357-1-.196 0-.471-.457-.611-1.016-.155-.615-.433-.907-.706-.739-.263.163-.339.1-.183-.153.147-.237-.275-1.025-.938-1.751-.663-.726-1.205-1.459-1.205-1.63 0-.171-.27-.311-.6-.311-.33 0-.6-.27-.6-.6 0-.33-.27-.6-.6-.6-.33 0-.6-.27-.6-.6 0-.33-.27-.6-.6-.6-.33 0-.6-.18-.6-.4 0-.22-.27-.4-.6-.4-.33 0-.6-.232-.6-.515 0-.283-.389-.544-.864-.58-.475-.036-.973-.242-1.107-.458-.346-.559-4.026-1.76-5.297-1.729-.59.015-1.169-.236-1.293-.561-.31-.808-13.378-.781-13.689.028M43.049 94.217c-.155.404-.844.583-2.249.583-1.431 0-2.093.176-2.255.6-.14.363-.744.6-1.529.6-.831 0-1.688.36-2.378 1-.594.55-1.295 1.006-1.559 1.013-.263.007-1.093.629-1.843 1.384-.751.754-1.51 1.281-1.689 1.17-.178-.11-.438.258-.579.817-.14.559-.505 1.016-.811 1.016-.307 0-.557.178-.557.395 0 .615-1.304 1.988-1.671 1.761-.181-.112-.329.347-.329 1.02 0 .821-.197 1.224-.6 1.224-.366 0-.6.373-.6.957 0 .527-.27 1.061-.6 1.188-.347.133-.6.731-.6 1.419 0 .654-.18 1.3-.4 1.436-.22.136-.4 1.027-.4 1.981 0 1.172-.194 1.808-.6 1.964-.878.337-.878 7.773 0 8.11.419.161.6.814.6 2.164 0 1.064.18 2.045.4 2.181.22.136.4.749.4 1.361 0 .613.444 1.631.986 2.262.718.835.854 1.231.5 1.456-.335.213-.269.311.214.315.385.003.7.276.7.606 0 .33.254.6.565.6.315 0 .513.309.448.7-.063.385.402 1.185 1.036 1.777.633.593 1.151 1.268 1.151 1.5 0 .233.237.423.526.423.29 0 .908.675 1.374 1.5.466.825 1.242 1.77 1.723 2.1.481.33 1.11.825 1.397 1.1.288.275.716.5.951.5.236 0 .429.27.429.6 0 .33.189.6.419.6.231 0 .816.425 1.3.944.485.52 1.286 1.072 1.781 1.227.495.156.9.451.9.656 0 .205.251.373.557.373.307 0 .661.27.788.6.126.33.514.6.862.6.347 0 1.06.462 1.583 1.027.523.565 1.055 1.015 1.181 1 1.165-.137 1.829.071 1.829.573 0 .373.378.6 1 .6.55 0 1 .168 1 .373s.397.499.881.653c.485.154 1.128.526 1.429.827.301.301.894.547 1.319.547.424 0 .771.141.771.313 0 .172.462.351 1.026.397.565.047 1.298.356 1.629.688.331.331 1.039.602 1.574.602.534 0 .971.166.971.368 0 .203.54.487 1.2.632.66.145 1.2.429 1.2.632 0 .202.72.368 1.6.368 1.156 0 1.6.167 1.6.6 0 .433.444.6 1.6.6 1.043 0 1.6.18 1.6.518 0 .315.59.558 1.5.618.825.054 1.56.271 1.633.482.074.21 1.109.382 2.3.382 1.66 0 2.167.141 2.167.6 0 .461.511.6 2.2.6 1.717 0 2.2.136 2.2.618 0 .339.225.588.5.552 1.563-.203 5.513.085 5.326.388-.356.577.541.735 4.572.809 2.089.038 3.97.241 4.18.451.498.498 22.73.51 23.242.013.209-.204 2-.421 3.98-.483s3.825-.278 4.1-.48c.746-.546.663-4.631-.1-4.923-.391-.15-.6-.773-.6-1.788 0-.856-.16-1.557-.357-1.557-.196 0-.469-.45-.607-1s-.428-1-.644-1c-.215 0-.392-.54-.392-1.2 0-.8-.2-1.2-.6-1.2-.373 0-.6-.378-.6-1s-.227-1-.6-1c-.368 0-.6-.374-.6-.967 0-.531-.197-1.032-.437-1.112-.24-.08-.465-.635-.5-1.233-.035-.598-.288-1.088-.563-1.088-.438 0-.691-.787-.547-1.7.026-.165-.223-.3-.553-.3-.33 0-.6-.255-.6-.567 0-.311-.164-.626-.363-.7-.2-.073-.425-.485-.5-.916-.153-.877-1.324-2.217-1.937-2.217-.22 0-.4-.425-.4-.944 0-.54-.428-1.265-1-1.695-.55-.413-1-1.041-1-1.395 0-.773-1.311-2.366-1.947-2.366-.249 0-.453-.27-.453-.6 0-.33-.16-.6-.357-.6-.196 0-.469-.45-.607-1s-.428-1-.644-1c-.215 0-.392-.27-.392-.6 0-.33-.27-.6-.6-.6-.33 0-.6-.173-.6-.385 0-.523-3.656-4.239-4.053-4.12-.175.053-.233-.128-.128-.401.105-.272-1.105-1.845-2.689-3.495-1.584-1.649-2.846-3.134-2.805-3.299.041-.165-.124-.3-.367-.3-.244 0-1.119-.535-1.944-1.189-.826-.654-1.617-1.074-1.758-.934-.141.141-.256-.044-.256-.41 0-.367-.27-.667-.6-.667-.33 0-.6-.183-.6-.406 0-.547-2.474-2.768-3.1-2.782-.275-.007-.5-.198-.5-.425 0-.226-.311-.531-.691-.677-.38-.146-1.057-.636-1.503-1.088-.953-.966-2.127-1.751-3.106-2.08-.385-.13-.7-.484-.7-.789 0-.304-.27-.553-.6-.553-.33 0-.6-.16-.6-.357 0-.196-.45-.469-1-.607s-1-.428-1-.644c0-.215-.54-.392-1.2-.392-.8 0-1.2-.2-1.2-.6 0-.33-.27-.6-.6-.6-.33 0-.6-.177-.6-.392 0-.216-.45-.506-1-.644s-1-.411-1-.607c0-.197-.45-.357-1-.357-.622 0-1-.227-1-.6 0-.395-.395-.6-1.157-.6-.66 0-1.256-.258-1.388-.6-.126-.33-.686-.6-1.242-.6-.557 0-1.013-.18-1.013-.4 0-.22-.135-.371-.3-.336-.345.073-1.584-.353-2.595-.893-.382-.204-1.282-.377-2-.384-.718-.007-1.654-.277-2.081-.6-.49-.37-1.697-.587-3.267-.587-1.637 0-2.547-.171-2.657-.5-.26-.785-8.952-.862-9.251-.083M343.1 175.068c-.385.105-.7.357-.7.561 0 .204-1.53.371-3.4.371-2.756 0-3.4.114-3.4.6 0 .472-.557.6-2.613.6-2.001 0-2.668.146-2.852.626-.185.482-.586.568-1.733.374-1.082-.182-1.665-.08-2.119.374-.344.344-1.274.626-2.067.626-.912 0-1.526.22-1.671.6-.139.36-.742.6-1.511.6-.705 0-1.63.264-2.058.587-.427.323-1.271.593-1.876.6-.605.007-1.1.193-1.1.413 0 .22-.636.4-1.413.4-.886 0-1.498.223-1.642.6-.127.33-.642.6-1.145.6s-1.018.27-1.145.6c-.133.347-.731.6-1.419.6-.654 0-1.3.18-1.436.4-.136.22-.584.4-.995.4-.411 0-1.018.27-1.348.6-.33.33-.888.6-1.241.6-.353 0-.745.27-.871.6-.127.33-.667.6-1.2.6-.534 0-1.074.27-1.2.6-.127.33-.472.6-.767.6-.814 0-4.323 1.958-4.692 2.619-.179.319-.777.581-1.329.581-.553 0-.902.165-.777.367.125.203-.315.487-.977.632-.661.146-1.203.43-1.203.633 0 .202-.27.368-.6.368-.33 0-.6.196-.6.436 0 .571-1.645 1.934-2.354 1.951-.305.007-.971.463-1.481 1.013-.51.55-1.205 1-1.546 1-.34 0-.619.186-.619.413 0 .226-.315.531-.7.676-1.832.692-3.912 4.111-2.5 4.111.22 0 .4.27.4.6 0 .33.251.6.557.6.307 0 .665.281.797.625s.401.526.598.405c.196-.122.58.047.852.374.272.328.742.596 1.045.596.303 0 .551.27.551.6 0 .33.251.6.557.6.307 0 .661.27.788.6.126.33.514.6.862.6.347 0 1.048.45 1.558 1s1.247 1 1.638 1c.391 0 1.226.54 1.857 1.2.631.66 1.505 1.2 1.943 1.2.439 0 .797.18.797.4 0 .22.45.4 1 .4s1 .226 1 .502c0 .277.519.733 1.154 1.013.635.281 1.562.865 2.061 1.298.499.433 1.24.787 1.646.787.407 0 .739.18.739.4 0 .22.54.4 1.2.4.725 0 1.16.191 1.1.482-.055.265.08.499.3.519.93.088 2.2.681 2.2 1.026 0 .205.63.373 1.4.373.77 0 1.4.18 1.4.4 0 .22.45.4 1 .4.622 0 1 .227 1 .6 0 .421.425.6 1.429.6.785 0 1.698.27 2.028.6.33.33 1.133.6 1.784.6.684 0 1.281.254 1.414.6.142.37.75.6 1.588.6.746 0 1.357.18 1.357.4 0 .22.816.4 1.813.4 1.242 0 1.885.189 2.042.6.162.422.82.6 2.211.6 1.09 0 1.884.157 1.766.349-.234.378 1.981.84 4.068.847.715.002 1.3.184 1.3.404 0 .235 1.384.4 3.351.4 2.491 0 3.479.154 3.849.6.424.51 2.404.6 13.262.6 10.976 0 12.795-.084 12.993-.6.169-.438.859-.6 2.564-.6 1.284 0 2.43-.156 2.549-.347.118-.192.938-.464 1.823-.605.885-.142 1.609-.435 1.609-.653 0-.217.54-.395 1.2-.395.8 0 1.2-.2 1.2-.6 0-.368.374-.6.967-.6.531 0 1.026-.175 1.1-.388.073-.214.553-.452 1.066-.53.513-.078 1.053-.329 1.2-.558.147-.229.675-.543 1.173-.699.498-.155.802-.45.676-.654-.126-.204.141-.371.594-.371.466 0 .824-.261.824-.6 0-.33.193-.6.429-.6.466 0 1.571-.985 1.571-1.401 0-.142.72-.904 1.6-1.694 1-.898 1.6-1.787 1.6-2.371 0-.564.238-.934.6-.934.375 0 .6-.379.6-1.013 0-.556.27-1.116.6-1.242.33-.127.6-.646.6-1.154 0-.509.199-.991.443-1.072.26-.087.52-1.62.63-3.715.103-1.963.366-3.903.585-4.312.255-.477.26-.913.013-1.218-.212-.261-.462-2.083-.557-4.05-.108-2.252-.346-3.635-.643-3.734-.259-.086-.471-.662-.471-1.281 0-.63-.264-1.225-.6-1.354-.33-.126-.6-.596-.6-1.042 0-.456-.264-.813-.6-.813-.339 0-.6-.358-.6-.825 0-1.092-6.496-7.575-7.59-7.575-.453 0-.81-.264-.81-.6 0-.333-.356-.6-.8-.6-.44 0-.8-.177-.8-.392 0-.216-.495-.513-1.1-.66-.605-.147-1.427-.491-1.826-.763-.399-.273-1.074-.405-1.5-.294-.53.138-.774-.002-.774-.444 0-.485-.39-.647-1.557-.647-1.015 0-1.638-.209-1.788-.6-.165-.432-.841-.6-2.409-.6-1.388 0-2.24-.182-2.346-.5-.165-.497-24.688-.899-26.4-.432m-313.9 3.266c-.55.073-1.171.298-1.38.5-.209.201-1.514.366-2.9.366-1.973 0-2.52.13-2.52.6 0 .431-.44.6-1.557.6-1.015 0-1.638.209-1.788.6-.126.33-.715.6-1.308.6-1.218 0-4.147 1.184-4.147 1.677 0 .178-.369.323-.819.323-.451 0-1.249.464-1.775 1.032-.526.567-1.193 1.071-1.481 1.119-.903.151-2.325 1.218-2.325 1.745 0 .277-.27.504-.6.504-.33 0-.6.27-.6.6 0 .33-.24.6-.532.6-.293 0-.774.45-1.068 1-.294.55-.775 1-1.068 1-.329 0-.532.475-.532 1.243 0 .851-.163 1.18-.516 1.044-.33-.126-.548.177-.602.835-.047.568-.31 1.172-.584 1.341C.27 196.176-.463 214.8.345 214.8c.207 0 .358.642.335 1.427-.022.785.131 1.55.34 1.7.209.15.726.903 1.149 1.673.423.77 1.008 1.544 1.3 1.72.292.176.531.574.531.884 0 .669 3.904 4.596 4.569 4.596.112 0 .756.54 1.431 1.2.675.66 1.592 1.2 2.037 1.2.446 0 .699.18.563.4-.144.233.263.4.976.4.821 0 1.224.197 1.224.6 0 .4.4.6 1.2.6.701 0 1.158.193 1.1.464-.059.272.564.534 1.5.631.88.092 1.771.333 1.98.536.209.203 1.16.369 2.113.369 1.171 0 1.807.194 1.962.6.181.471.992.6 3.759.6 2.646 0 3.683.154 4.146.617.872.872 12.416.819 12.08-.056-.177-.462.616-.562 4.473-.566 4.885-.006 6.63-.24 6.259-.84-.121-.195 1.221-.355 2.981-.355 1.76 0 3.311-.18 3.447-.4.136-.22 1.034-.4 1.995-.4 1.02 0 1.998-.25 2.348-.6.34-.34 1.317-.6 2.257-.6.94 0 1.917-.26 2.257-.6.33-.33 1.217-.6 1.972-.6.754 0 1.371-.18 1.371-.4 0-.22.506-.4 1.124-.4.617 0 1.472-.264 1.9-.587.427-.323 1.451-.593 2.276-.6 1.061-.009 1.5-.189 1.5-.613 0-.397.397-.6 1.176-.6.647 0 1.279-.166 1.405-.369.125-.203.766-.488 1.424-.632.657-.144 1.195-.428 1.195-.631 0-.202.456-.368 1.013-.368.556 0 1.116-.27 1.242-.6.127-.33.661-.6 1.188-.6.584 0 .957-.234.957-.6 0-.4.4-.6 1.2-.6.66 0 1.2-.18 1.2-.4 0-.22.366-.4.813-.4.446 0 .916-.27 1.042-.6.127-.33.642-.6 1.145-.6s1.018-.27 1.145-.6c.126-.33.518-.6.871-.6s.892-.225 1.199-.5c1.423-1.277 1.806-1.5 2.568-1.5.46 0 .817-.263.817-.6 0-.336.357-.6.813-.6.446 0 .916-.27 1.042-.6.127-.33.481-.6.788-.6.306 0 .557-.18.557-.4 0-.22.41-.4.911-.4.893 0 2.289-1.223 2.289-2.005 0-.217.27-.395.6-.395.33 0 .6-.191.6-.424 0-.233.153-.329.339-.213.187.115.72-.144 1.184-.577.464-.432 1.031-.786 1.26-.786.229 0 .417-.27.417-.6 0-.33.27-.6.6-.6.33 0 .6-.27.6-.6 0-.33.27-.6.6-.6.33 0 .6-.165.6-.367 0-.833-.522-1.633-1.066-1.633-.32 0-.47-.18-.334-.4.136-.22-.033-.4-.376-.4-.343 0-.624-.16-.624-.357 0-.196-.45-.469-1-.607s-1-.518-1-.844a.598.598 0 0 0-.6-.592c-.33 0-.6-.152-.6-.337 0-.185-.668-.68-1.484-1.1-.816-.42-1.851-1.146-2.3-1.614-.449-.467-.945-.827-1.103-.8-.158.028-.624-.237-1.035-.589-.411-.352-1.227-.761-1.813-.908-.586-.147-1.065-.444-1.065-.66 0-.215-.251-.392-.557-.392-.307 0-.661-.27-.788-.6-.126-.33-.596-.6-1.042-.6-.447 0-.813-.145-.813-.323 0-.404-2.836-1.677-3.734-1.677-.366 0-.666-.27-.666-.6 0-.373-.378-.6-1-.6s-1-.227-1-.6c0-.366-.373-.6-.957-.6-.527 0-1.055-.255-1.175-.568-.128-.332-.642-.521-1.243-.455-.654.072-1.025-.085-1.025-.432 0-.316-.425-.545-1.013-.545-.556 0-1.116-.27-1.242-.6-.14-.364-.745-.6-1.539-.6-.719 0-1.532-.27-1.806-.6-.274-.33-.836-.6-1.249-.6-.413 0-.751-.18-.751-.4 0-.22-.821-.4-1.824-.4-1.003 0-1.724-.161-1.602-.358.282-.456-.714-.842-2.173-.842-.624 0-1.2-.198-1.281-.439-.08-.242-.999-.536-2.042-.653-1.043-.118-1.993-.37-2.111-.561-.118-.191-1.104-.347-2.191-.347-1.49 0-1.976-.148-1.976-.6 0-.47-.547-.6-2.524-.6-1.599 0-2.807-.215-3.3-.587-.534-.404-1.813-.592-4.1-.6-2.11-.008-3.233-.159-3.076-.413.136-.22.012-.415-.276-.434-1.738-.114-21.101-.142-21.924-.032m252.649 64.284c-.176.457-1.101.582-4.305.582-5.712 0-7.119.651-7.134 3.3-.007 1.427.139 1.9.59 1.9.42 0 .6.424.6 1.413 0 .886.223 1.498.6 1.642.33.127.6.551.6.942 0 .391.261 1.214.58 1.829.318.614.488 1.265.376 1.445-.112.181.077.329.42.329.427 0 .624.38.624 1.2 0 .8.2 1.2.6 1.2.366 0 .6.373.6.957 0 .527.281 1.065.625 1.197.344.132.523.407.397.611-.126.204.053.653.399.999.345.345.655.99.689 1.432.033.442.292.804.575.804s.515.276.515.613c0 .336.27.716.6.842.33.127.6.661.6 1.188 0 .526.177.957.392.957.216 0 .506.45.644 1s.411 1 .607 1c.197 0 .357.27.357.6 0 .33.27.6.6.6.33 0 .6.257.6.571 0 .315.281.853.626 1.197.344.344.513.807.376 1.029-.137.222.031.403.374.403.343 0 .624.27.624.6 0 .33.27.6.6.6.33 0 .6.192.6.427 0 .609 1.912 3.09 3.899 5.058.935.927 1.701 1.962 1.701 2.3 0 .338.18.615.4.615.22 0 .4.27.4.6 0 .33.27.6.6.6.33 0 .6.27.6.6 0 .33.27.6.6.6.33 0 .6.148.6.328 0 .393 2.168 2.872 2.512 2.872.413 0 3.888 3.573 3.888 3.998 0 .221.135.373.3.338.588-.124 1.692.554 1.474.906-.122.197.149.358.602.358.453 0 .824.18.824.4 0 .22.27.4.6.4.33 0 .6.27.6.6 0 .33.289.6.643.6.416 0 .559.218.404.621-.131.341-.083.525.106.408.303-.187.79.127 2.73 1.764.266.224.589.407.719.407s.633.405 1.117.9c.485.495 1.545 1.238 2.358 1.65.812.413 1.571.998 1.687 1.3.116.303.582.55 1.036.55.454 0 .929.27 1.055.6.127.33.492.6.811.6.32 0 .471.178.337.395-.135.218-.004.303.29.191.294-.113.926.159 1.404.604.478.446 1.237.81 1.686.81.46 0 .817.263.817.6 0 .365.372.6.951.6.523 0 1.175.27 1.449.6.274.33.836.6 1.249.6.413 0 .751.18.751.4 0 .22.431.4.957.4.527 0 1.061.27 1.188.6.142.372.751.6 1.6.6.848 0 1.457.228 1.6.6.15.392.773.6 1.8.6.887 0 1.653.217 1.761.501.119.309 1.168.546 2.743.621 1.403.066 2.613.299 2.69.516.084.238 2.346.373 5.699.339 3.058-.031 5.475-.193 5.372-.362-.104-.168.838-.411 2.094-.541 1.256-.129 2.346-.424 2.423-.655.077-.23.58-.419 1.119-.419.538 0 1.083-.27 1.209-.6.127-.33.562-.6.968-.6.405 0 .881-.227 1.057-.504.176-.277.995-.858 1.82-1.291.825-.433 1.5-.926 1.5-1.096 0-.17.27-.309.6-.309.33 0 .6-.169.6-.375 0-.207.54-.967 1.2-1.689.66-.723 1.2-1.544 1.2-1.825 0-.281.18-.511.4-.511.22 0 .4-.251.4-.557 0-.307.27-.661.6-.788.33-.126.6-.596.6-1.042 0-.447.178-.813.395-.813.218 0 .509-.709.647-1.575.139-.867.501-1.671.805-1.788.36-.138.553-.855.553-2.048 0-1.01.159-1.738.354-1.618.488.302.58-8.528.095-9.113-.215-.258-.465-1.268-.556-2.243-.091-.975-.374-1.842-.629-1.927-.255-.085-.464-.57-.464-1.079 0-.508-.27-1.027-.6-1.154-.33-.126-.6-.686-.6-1.242 0-.634-.225-1.013-.6-1.013-.373 0-.6-.378-.6-1 0-.55-.18-1-.4-1-.22 0-.4-.27-.4-.6 0-.33-.27-.6-.6-.6-.333 0-.6-.356-.6-.8 0-.858-1.313-2.4-2.043-2.4-.243 0-.339-.27-.212-.6.126-.33.062-.6-.144-.6-.513 0-3.025-2.499-2.901-2.887.055-.172-.13-.313-.411-.313-.574 0-1.889-1.396-1.889-2.005 0-.217-.495-.398-1.1-.401-.857-.005-.968-.092-.5-.394.468-.302.357-.389-.5-.394-.708-.004-1.1-.22-1.1-.606 0-.33-.251-.6-.557-.6-.307 0-.661-.27-.788-.6-.126-.33-.596-.6-1.042-.6-.447 0-.813-.18-.813-.4 0-.22-.27-.4-.6-.4-.33 0-.6-.232-.6-.515 0-.283-.393-.544-.873-.581-.481-.036-1.03-.344-1.22-.685-.191-.34-.769-.619-1.284-.619-.516 0-1.041-.27-1.168-.6-.126-.33-.596-.6-1.042-.6-.447 0-.813-.18-.813-.4 0-.22-.54-.4-1.2-.4-.8 0-1.2-.2-1.2-.6 0-.366-.373-.6-.957-.6-.527 0-1.061-.27-1.188-.6-.126-.33-.686-.6-1.242-.6-.557 0-1.013-.168-1.013-.373 0-.206-.495-.431-1.1-.5-.605-.07-1.067-.316-1.027-.547.041-.231-.587-.465-1.394-.519-.808-.054-1.615-.36-1.794-.68-.183-.327-.909-.581-1.662-.581-.85 0-1.426-.23-1.58-.632-.181-.471-.547-.565-1.443-.368-.896.197-1.262.103-1.443-.368-.17-.443-.767-.632-2-.632-1.295 0-1.757-.158-1.757-.6 0-.446-.47-.6-1.829-.6-1.092 0-2.07-.242-2.428-.6-.364-.364-1.344-.6-2.492-.6-1.04 0-2.062-.171-2.271-.38-.209-.208-1.64-.433-3.18-.5-1.978-.085-2.771-.267-2.7-.62.076-.378-1.105-.5-4.857-.5-3.978 0-5.002-.115-5.182-.584-.333-.87-17.279-.868-17.612.002m-188.845 2.975c-.142.231-.427.316-.632.19-.204-.127-.372-.04-.372.193 0 .263-1.218.424-3.213.424-2.486 0-3.264.136-3.442.6-.172.448-.887.6-2.816.6-1.741 0-2.778.192-3.173.587-.323.323-1.217.564-1.986.535-.77-.029-1.609.157-1.865.413s-1.329.465-2.385.465c-1.44 0-1.92.15-1.92.6 0 .444-.467.6-1.8.6-1.227 0-1.768.159-1.7.5.063.313-.462.547-1.4.624-.825.068-1.5.293-1.5.5 0 .207-.495.382-1.1.389-.605.007-1.449.277-1.876.6-.428.323-1.193.587-1.7.587-.555 0-.924.24-.924.6 0 .39-.391.6-1.12.6-.616 0-1.299.179-1.518.398-.218.218-.871.437-1.451.485-.579.047-.964.231-.856.407.109.175-.369.433-1.063.572-.693.138-1.355.496-1.469.795-.115.299-.49.543-.834.543s-.935.28-1.313.621c-.377.342-1.054.65-1.504.684-.449.033-.728.204-.621.378.108.174-.174.317-.627.317s-.779.225-.724.5c.056.281-.381.555-1 .627-.605.069-1.1.348-1.1.619s-.642.725-1.426 1.009c-.784.284-1.524.77-1.643 1.08-.119.311-.557.565-.974.565-.416 0-.757.27-.757.6 0 .33-.291.6-.647.6-.356 0-1.345.72-2.199 1.6-.854.88-1.753 1.6-1.996 1.6-.244 0-.34.27-.213.6.14.365 0 .6-.358.6-.323 0-.587.18-.587.4 0 .22-.27.4-.6.4-.33 0-.6.27-.6.6 0 .33-.27.6-.6.6-.33 0-.6.188-.6.417 0 .23-.45.903-1 1.496-.55.594-1 1.396-1 1.783s-.27.704-.6.704c-.33 0-.6.27-.6.6 0 .33-.245.6-.545.6-.365 0-.481.329-.353 1 .14.733.019 1-.455 1-.426 0-.647.347-.647 1.013 0 .556-.27 1.116-.6 1.242-.33.127-.6.639-.6 1.139 0 .499-.243 1.109-.539 1.356-.344.285-.57 1.489-.624 3.326-.046 1.583-.232 3.144-.413 3.468-.182.324-.183 1.1-.004 1.726.179.625.376 2.485.438 4.133.079 2.121.262 2.997.627 2.997.301 0 .515.479.515 1.151 0 .633.27 1.375.6 1.649.33.274.6.733.6 1.02 0 .288.225.761.5 1.053.644.683 2.284 3.514 2.578 4.45.127.404.468.63.775.512.31-.119.547.045.547.378 0 .323.281.587.624.587.343 0 .511.181.374.403-.137.221.033.511.377.643s.625.49.625.797c0 .306.384.557.854.557s1.271.45 1.781 1c.521.562 1.373 1 1.946 1 .639 0 1.019.224 1.019.6 0 .431.441.6 1.567.6.898 0 1.637.213 1.733.5.278.837 16.788.958 17.477.128.311-.375 1.152-.628 2.085-.628 1.02 0 1.643-.208 1.793-.6.15-.391.773-.6 1.788-.6.856 0 1.557-.18 1.557-.4 0-.22.437-.4.971-.4.535 0 1.242-.27 1.572-.6.33-.33 1.063-.6 1.628-.6.612 0 1.029-.225 1.029-.557 0-.306.45-.669 1-.807s1-.428 1-.644c0-.215.36-.392.8-.392.44 0 .8-.18.8-.4 0-.22.366-.4.813-.4.446 0 .916-.27 1.042-.6.127-.33.661-.6 1.188-.6.584 0 .957-.234.957-.6 0-.33.27-.6.6-.6.33 0 .6-.16.6-.357 0-.196.45-.469 1-.607s1-.428 1-.644c0-.215.27-.392.6-.392.33 0 .6-.27.6-.6 0-.33.352-.6.782-.6.43 0 1.232-.45 1.782-1s1.195-1 1.434-1c.691 0 2.792-1.692 2.563-2.064-.115-.185-.018-.336.215-.336.233 0 1.156-.732 2.051-1.627.895-.895 1.975-1.653 2.4-1.685.425-.032.773-.29.773-.573s.24-.515.532-.515c.293 0 .774-.45 1.068-1 .294-.55.775-1 1.068-1 .292 0 .532-.27.532-.6 0-.33.166-.6.369-.6.481 0 2.831-2.35 2.831-2.831 0-.203.27-.369.6-.369.33 0 .6-.188.6-.417 0-.229.36-.803.8-1.275.44-.472.8-.711.8-.529 0 .181.36-.129.8-.688.44-.56.8-1.214.8-1.454 0-.547 1.463-2.037 2-2.037.22 0 .4-.27.4-.6 0-.33.18-.6.4-.6.22 0 .4-.27.4-.6 0-.33.27-.6.6-.6.373 0 .6-.378.6-1s.227-1 .6-1c.33 0 .6-.188.6-.417 0-.23.45-.903 1-1.496.55-.594 1-1.396 1-1.783s.27-.704.6-.704c.33 0 .6-.281.6-.624 0-.343.161-.524.357-.402.197.121.474-.244.617-.812.142-.568.702-1.51 1.242-2.093.541-.584.984-1.358.984-1.722 0-.364.27-.765.6-.892.33-.126.6-.596.6-1.042 0-.447.18-.813.4-.813.22 0 .4-.366.4-.813 0-.446.27-.916.6-1.042.33-.127.6-.577.6-1 0-.424.27-.874.6-1 .33-.127.6-.494.6-.816 0-.323.27-.856.6-1.186.33-.33.6-1.048.6-1.595 0-.547.143-.907.317-.799.174.107.346-.185.381-.65.035-.465.342-1.002.683-1.192.372-.209.619-.897.619-1.727 0-.912.189-1.38.556-1.38.544 0 .819-.992 1.303-4.7l.222-1.7h-3.241c-2.54 0-3.24-.123-3.24-.571 0-.721-27.352-.954-27.796-.236M240 276.803c0 .684-.16 1.145-.356 1.024-.2-.123-.384 1.928-.42 4.666-.047 3.64-.211 5.051-.643 5.528-.876.968-.858 15.579.019 15.579.504 0 .6.869.6 5.424 0 3.189.151 5.33.367 5.196.203-.125.459 1.068.574 2.677.257 3.605.312 3.903.726 3.903.183 0 .333.99.333 2.2 0 1.689.139 2.2.6 2.2.521 0 .908 2.449.647 4.1-.026.165.172.255.44.2.318-.065.449.333.376 1.147-.066.728.148 1.506.512 1.871.344.344.625 1.248.625 2.011 0 .862.226 1.472.6 1.616.372.142.6.751.6 1.6 0 .848.228 1.457.6 1.6.33.126.6.686.6 1.242 0 .557.18 1.013.4 1.013.22 0 .4.636.4 1.413 0 .886.223 1.498.6 1.642.342.132.6.728.6 1.388 0 .762.205 1.157.6 1.157.373 0 .6.378.6 1 0 .652.224 1 .643 1 .387 0 .557.223.427.561-.118.309.037.894.345 1.3.308.407.565 1.144.572 1.639.008.528.261.9.613.9.373 0 .6.378.6 1s.227 1 .6 1c.338 0 .6.357.6.817 0 .45.45 1.303 1 1.896.55.594 1 1.387 1 1.763 0 .376.242.828.537 1.004.612.365 2.08 2.52 1.716 2.52-.131 0 .373.63 1.121 1.4.747.77 1.554 1.4 1.793 1.4.238 0 .433.2.433.443 0 .736 6.81 7.157 7.59 7.157.398 0 .828.27.955.6.126.33.516.6.866.6s.534.165.409.367c-.125.203.316.487.98.633.664.146 1.112.419.996.607-.116.188.602.464 1.596.613.995.149 1.808.43 1.808.625s.72.355 1.6.355c1.183 0 1.6.163 1.6.624 0 .543.748.609 5.7.5 4.295-.093 5.675-.247 5.6-.624-.066-.332.429-.5 1.476-.5.867 0 1.679-.166 1.805-.369.125-.203.766-.488 1.424-.632.657-.144 1.195-.428 1.195-.631 0-.202.366-.368.813-.368.446 0 .916-.27 1.042-.6.127-.33.481-.6.788-.6.306 0 .557-.27.557-.6 0-.373.378-.6 1-.6.667 0 1-.222 1-.667 0-.366.108-.558.241-.425.29.29 3.359-2.768 3.359-3.348 0-.224.18-.296.4-.16.227.14.4-.196.4-.776 0-.644.223-1.024.6-1.024.375 0 .6-.379.6-1.013 0-.556.27-1.116.6-1.242.33-.127.6-.661.6-1.188 0-.526.18-.957.4-.957.22 0 .4-.99.4-2.2 0-1.62.148-2.2.561-2.2.875 0 .93-11.113.056-11.449-.467-.179-.617-.858-.617-2.794 0-1.438-.175-2.557-.4-2.557-.22 0-.4-.701-.4-1.557 0-1.015-.209-1.638-.6-1.788-.396-.152-.6-.778-.6-1.842 0-1.167-.166-1.613-.6-1.613-.373 0-.6-.378-.6-1 0-.55-.18-1-.4-1-.22 0-.4-.347-.4-.771 0-.425-.27-1.042-.6-1.372-.33-.33-.6-.888-.6-1.241 0-.353-.27-.745-.6-.871-.33-.127-.6-.667-.6-1.2 0-.534-.27-1.074-.6-1.2-.33-.127-.603-.526-.608-.888-.004-.361-.636-1.377-1.404-2.257-.768-.88-1.509-1.952-1.645-2.381-.137-.43-.495-1.028-.796-1.329-.301-.301-.547-.804-.547-1.119 0-.314-.18-.571-.4-.571-.22 0-.4-.27-.4-.6 0-.33-.18-.6-.4-.6-.555 0-1.869-1.368-2.171-2.261-.328-.971-2.076-2.939-2.61-2.939a.42.42 0 0 1-.419-.417c0-.229-.367-.81-.815-1.292-.449-.481-.914-1.267-1.034-1.745-.12-.479-.582-.965-1.025-1.081-.444-.116-.688-.403-.543-.638.145-.235.022-.427-.273-.427-.296 0-.858-.543-1.251-1.207-.392-.664-.881-1.103-1.086-.976-.205.126-.373-.05-.373-.393a.614.614 0 0 0-.6-.624c-.33 0-.6-.186-.6-.413 0-.518-2.291-2.787-2.814-2.787-.212 0-.386-.27-.386-.6 0-.33-.23-.6-.512-.6-.281 0-.771-.36-1.088-.8-.317-.44-.814-.8-1.103-.8-.29 0-1.314-.81-2.276-1.8-.962-.99-1.926-1.8-2.143-1.8-.216 0-.496-.27-.623-.6-.126-.33-.596-.6-1.042-.6-.456 0-.813-.264-.813-.6 0-.33-.188-.6-.417-.6-.229 0-.81-.367-1.292-.815-.481-.449-1.284-.919-1.783-1.044-.499-.125-.908-.478-.908-.784 0-.307-.36-.557-.8-.557-.44 0-.8-.176-.8-.39 0-.215-.855-.779-1.9-1.253-1.045-.475-2.296-1.29-2.781-1.81-.484-.521-1.249-.947-1.7-.947-.45 0-.819-.177-.819-.392 0-.216-.45-.506-1-.644s-1-.411-1-.607c0-.197-.456-.357-1.013-.357-.556 0-1.116-.27-1.242-.6-.127-.33-.661-.6-1.188-.6-.584 0-.957-.234-.957-.6 0-.396-.396-.6-1.167-.6-.641 0-1.229-.188-1.306-.418-.076-.23-.541-.448-1.033-.485-.492-.037-.894-.299-.894-.582 0-.301-.48-.515-1.157-.515-.637 0-1.249-.24-1.362-.533-.134-.349-1.048-.563-2.643-.621l-2.438-.088v1.245m-84.503.487c-.112.293-.803.578-1.535.634-.732.056-1.444.285-1.582.509-.139.224-.636.436-1.106.471-.469.036-.942.297-1.051.58-.109.284-.654.516-1.21.516-.634 0-1.013.225-1.013.6 0 .373-.378.6-1 .6-.55 0-1 .18-1 .4 0 .22-.456.4-1.013.4-.556 0-1.116.27-1.242.6-.127.33-.577.6-1 .6-.424 0-.874.27-1 .6-.127.33-.642.6-1.145.6s-1.022.281-1.154.625c-.132.344-.422.514-.643.377-.222-.137-.403-.064-.403.162s-.27.307-.6.181c-.33-.127-.6-.031-.6.212 0 .244-.27.443-.6.443-.33 0-.6.27-.6.6 0 .373-.378.6-1 .6s-1 .227-1 .6c0 .33-.27.6-.6.6-.33 0-.6.18-.6.4 0 .22-.323.4-.719.4-.395 0-1.16.532-1.7 1.183-.539.651-1.386 1.191-1.881 1.2-.526.01-.9.266-.9.617 0 .33-.27.6-.6.6-.33 0-.6.18-.6.4 0 .22-.27.4-.6.4-.33 0-.6.27-.6.6 0 .373-.378.6-1 .6s-1 .227-1 .6c0 .33-.192.6-.427.6-.39 0-1.557 1.044-6.596 5.9-.97.935-1.957 1.7-2.194 1.7-.237 0-.327.167-.201.371s-.124.484-.556.621c-.432.137-.896.599-1.032 1.028-.136.428-.673.885-1.194 1.016-.549.138-.864.452-.75.749.108.281-.084.619-.427.751-.343.131-.623.605-.623 1.051 0 .447-.167.813-.372.813-.849 0-5.228 5.003-5.228 5.973 0 .235-.27.427-.6.427-.33 0-.6.227-.6.504s-.344.718-.764.981c-.42.262-.885 1.025-1.032 1.696-.147.67-.523 1.219-.836 1.219a.565.565 0 0 0-.568.557c0 .307-.27.661-.6.788-.33.126-.6.596-.6 1.042 0 .447-.159.813-.353.813-.195 0-.453.378-.573.84-.121.463-.412.722-.647.577-.258-.16-.427.122-.427.71 0 .536-.27 1.199-.6 1.473-.33.274-.6.669-.6.878 0 .208-.272.651-.604.983-.332.332-.501.769-.376.971.125.203-.053.368-.396.368s-.603.135-.577.3c.164 1.039-.122 2.085-.547 2-.282-.056-.556.383-.627 1.007-.07.609-.279 1.013-.465.898-.185-.115-.459.511-.607 1.391-.149.88-.435 1.701-.636 1.826-.201.124-.365.825-.365 1.559 0 .816-.233 1.423-.6 1.564-.424.162-.6.824-.6 2.255 0 1.45-.174 2.092-.613 2.26-.886.341-.845 16.94.042 16.94.491 0 .827 1.577.618 2.9-.026.165.223.3.553.3.33 0 .6.324.6.72 0 1.085.933 2.873 1.5 2.877.275.002.5.267.5.589 0 .323.522 1.121 1.16 1.773.638.653 1.058 1.289.934 1.414-.125.125.073.227.439.227.367 0 .667.27.667.6 0 .33.27.6.6.6.33 0 .6.191.6.424 0 .233.18.312.4.176.22-.136.4-.099.4.082 0 .358.482.655 3.299 2.029 1.027.502 1.976 1.087 2.108 1.3.132.214.77.389 1.417.389.693 0 1.176.212 1.176.515 0 .366.894.549 3.083.631 1.695.063 3.393.281 3.773.484.921.493 2.744.473 2.744-.03 0-.229 1.2-.4 2.8-.4 2.17 0 2.8-.13 2.8-.576 0-.377.519-.619 1.5-.7.938-.077 1.463-.311 1.4-.624-.062-.311.353-.5 1.1-.5.66 0 1.2-.18 1.2-.4 0-.22.45-.4 1-.4.588 0 1-.23 1-.557 0-.306.405-.662.9-.792s1.859-1.139 3.031-2.243c1.172-1.105 2.297-2.008 2.5-2.008.203 0 .369-.193.369-.429 0-.553 1.018-1.571 1.571-1.571.236 0 .429-.27.429-.6 0-.33.27-.6.6-.6.33 0 .6-.204.6-.453 0-.249.675-1.089 1.5-1.867s1.478-1.52 1.451-1.647c-.107-.506.449-1.457 1.327-2.27.507-.47.922-1.239.922-1.709 0-.492.254-.854.6-.854.336 0 .6-.357.6-.813 0-.446.27-.916.6-1.042.33-.127.6-.481.6-.788 0-.306.18-.557.4-.557.22 0 .4-.456.4-1.013 0-.556.27-1.116.6-1.242.33-.127.6-.639.6-1.139 0-.499.27-1.132.6-1.406.33-.274.6-.733.6-1.02 0-.288.283-.806.629-1.151.345-.346.505-.629.354-.629-.151 0 .016-.444.371-.986s.646-1.532.646-2.2c0-.812.198-1.214.6-1.214.395 0 .6-.395.6-1.157 0-.66.258-1.256.6-1.388.379-.145.6-.758.6-1.666 0-.856.162-1.336.4-1.189.241.149.4-.382.4-1.334 0-1.036.207-1.66.6-1.811.361-.138.6-.741.6-1.511 0-.705.26-1.569.578-1.92.318-.352.623-1.39.677-2.308.054-.917.225-1.59.38-1.494.408.252.765-.882.765-2.431 0-.739.18-1.455.4-1.591.22-.136.4-1.412.4-2.836 0-1.932.152-2.648.6-2.819.468-.18.6-.974.6-3.6 0-2.578.137-3.423.581-3.593.81-.311.935-28.78.128-29.049-.325-.108-.581-1.241-.709-3.136l-.2-2.967-1.449-.121c-.93-.078-1.522.069-1.654.411M198 288.2c0 .33-.18.6-.4.6-.622 0-2 1.529-2 2.219 0 .341-.45 1.036-1 1.546s-1 1.131-1 1.381-.2.409-.445.354c-.245-.055-.515.314-.601.82-.085.505-.605 1.336-1.154 1.845-.55.51-1 1.311-1 1.781 0 .492-.254.854-.6.854-.33 0-.6.27-.6.6 0 .33-.16.6-.357.6-.196 0-.469.45-.607 1s-.428 1-.644 1c-.215 0-.392.431-.392.957 0 .527-.27 1.061-.6 1.188-.33.126-.6.686-.6 1.242 0 .634-.225 1.013-.6 1.013-.366 0-.6.373-.6.957 0 .527-.267 1.06-.593 1.185-.327.125-.496.481-.377.791.119.31-.064.844-.407 1.187-.343.343-.623.996-.623 1.451 0 .47-.26.829-.6.829-.365 0-.6.372-.6.951 0 .523-.27 1.175-.6 1.449-.33.274-.6.937-.6 1.473 0 .563-.173.867-.41.721-.225-.139-.384-.105-.353.076.234 1.347-.11 2.93-.637 2.93-.433 0-.6.444-.6 1.6 0 1.156-.167 1.6-.6 1.6-.376 0-.6.379-.6 1.014 0 .558-.286 1.45-.635 1.984-.428.653-.548 1.367-.369 2.186.21.954.132 1.216-.364 1.216-.499 0-.632.461-.632 2.187 0 1.781-.112 2.145-.6 1.958-.49-.188-.6.186-.6 2.041 0 1.485-.208 2.479-.6 2.871-.38.38-.6 1.366-.6 2.692 0 1.15-.225 2.333-.5 2.63-.406.437-.388.479.1.221s.506-.216.1.221c-.328.354-.5 1.867-.5 4.41 0 2.953-.142 3.989-.6 4.369-.878.728-.889 17.065-.013 18.224.378.499.592 1.739.6 3.476.007 1.485.156 2.7.331 2.7.175 0 .364.67.419 1.489.055.819.356 1.772.669 2.118.313.345.612 1.2.666 1.9.053.7.329 1.361.612 1.47.284.109.516.634.516 1.168 0 .533.289 1.08.642 1.216.352.135.546.492.431.794-.116.301-.024.734.205.963.518.518 1.428 2.057 1.762 2.982.139.385.502.7.807.7.304 0 .553.194.553.431 0 .56 2.209 2.769 2.769 2.769.237 0 .431.193.431.429 0 .901 2.595 2.771 3.846 2.771.305 0 .554.27.554.6 0 .366.373.6.957.6.527 0 1.061.27 1.188.6.158.413.803.6 2.071.6 1.103 0 2.082.24 2.441.6.473.473 1.726.6 5.929.6 4.367 0 5.37-.108 5.559-.6.151-.394.775-.6 1.814-.6.875 0 1.853-.269 2.184-.6.33-.33.978-.6 1.441-.6.463 0 .945-.27 1.071-.6.127-.33.566-.6.976-.6.41 0 1.933-1.17 3.384-2.6 1.451-1.43 2.807-2.6 3.012-2.6.205 0 .373-.27.373-.6 0-.33.18-.6.4-.6.22 0 .4-.251.4-.557 0-.307.27-.661.6-.788.33-.126.6-.596.6-1.042 0-.447.232-.813.515-.813.283 0 .543-.38.578-.845.035-.464.344-1.154.686-1.531.341-.378.621-.988.621-1.355 0-.368.18-.669.4-.669.22 0 .4-.701.4-1.557 0-1.015.209-1.638.6-1.788.372-.142.6-.751.6-1.6 0-.778.232-1.459.538-1.576.372-.143.564-1.113.622-3.143.046-1.615.254-2.996.462-3.069.526-.186.505-19.267-.022-19.267-.242 0-.4-1.719-.4-4.357 0-3.504-.117-4.402-.6-4.588-.449-.172-.6-.889-.6-2.842 0-2.056-.128-2.613-.6-2.613-.461 0-.6-.512-.6-2.205 0-1.213-.17-2.518-.378-2.9-.208-.382-.486-1.37-.618-2.195-.132-.825-.412-1.5-.622-1.5-.21 0-.382-.707-.382-1.571 0-.865-.27-1.842-.6-2.172-.33-.33-.6-1.243-.6-2.028 0-.93-.175-1.394-.5-1.329-.299.06-.55-.422-.625-1.2-.069-.715-.294-1.3-.5-1.3-.206 0-.375-.621-.375-1.38 0-.766-.25-1.523-.562-1.7-.308-.176-.628-.77-.709-1.32-.081-.55-.369-.955-.638-.9-.301.061-.491-.365-.491-1.1 0-.66-.137-1.2-.304-1.2-.167 0-.723-1.17-1.236-2.6-.512-1.43-1.096-2.6-1.296-2.6-.2 0-.364-.27-.364-.6 0-.33-.18-.6-.4-.6-.22 0-.4-.431-.4-.957 0-.527-.27-1.061-.6-1.188-.33-.126-.6-.601-.6-1.055 0-.454-.27-.929-.6-1.055-.33-.127-.6-.661-.6-1.188 0-.584-.234-.957-.6-.957-.33 0-.6-.27-.6-.6 0-.33-.16-.6-.357-.6-.196 0-.469-.45-.607-1s-.428-1-.644-1c-.215 0-.392-.27-.392-.6 0-.33-.27-.6-.6-.6-.338 0-.6-.357-.6-.817 0-.45-.45-1.303-1-1.896-.55-.594-1-1.286-1-1.54s-.27-.565-.6-.692c-.33-.126-.6-.48-.6-.786 0-.307-.45-.895-1-1.308-.55-.413-1-.978-1-1.256 0-.323-.578-.505-1.6-.505-1.156 0-1.6.167-1.6.6" fill="#d41414"/><path d="M168.501 58.2c.004.88.086 1.193.182.695.096-.497.092-1.217-.008-1.6-.1-.382-.179.025-.174.905m67.247 53.8c0 2.31.066 3.255.147 2.1a36.327 36.327 0 0 0 0-4.2c-.081-1.155-.147-.21-.147 2.1M35.32 178.298c1.935.074 4.995.073 6.8-.001 1.804-.074.22-.134-3.52-.133-3.74 0-5.216.061-3.28.134" fill="#d4141c"/><path d="M189.6 6.6c-.408.491-.38.6.151.6.357 0 .649-.27.649-.6 0-.33-.068-.6-.151-.6-.083 0-.375.27-.649.6M92 37c-.408.491-.38.6.151.6.357 0 .649-.27.649-.6 0-.33-.068-.6-.151-.6-.083 0-.375.27-.649.6m164.4 6.4c0 .33-.21.6-.467.6-.256 0-.344.122-.195.271.149.149.636-.121 1.082-.6.651-.699.69-.871.196-.871a.61.61 0 0 0-.616.6m-88 20.047c0 .22.264.749.587 1.177.323.427.588.596.588.376 0-.22-.265-.749-.588-1.176-.323-.428-.587-.597-.587-.377m52 11.202c0 .531.109.559.6.151.33-.274.6-.566.6-.649 0-.083-.27-.151-.6-.151-.33 0-.6.292-.6.649M153.2 84.6c0 .33.292.6.649.6.531 0 .559-.109.151-.6-.274-.33-.566-.6-.649-.6-.083 0-.151.27-.151.6m85.067-.333c-.461.46-.292.933.333.933.33 0 .6-.27.6-.6 0-.625-.473-.794-.933-.333m-22.61 6.19c-.282.452-.425.909-.317 1.016.107.108.404-.195.66-.673.605-1.13.324-1.41-.343-.343M75.2 103c0 .33.292.6.649.6.531 0 .559-.109.151-.6-.274-.33-.566-.6-.649-.6-.083 0-.151.27-.151.6m202.3 5.676c-.385.1-.7.349-.7.553 0 .524.474.441 1.376-.242.778-.588.634-.654-.676-.311M296.638 117c-.594.55-.958 1-.81 1 .149 0 .038.315-.245.7-.284.385.144.015.951-.822 1.355-1.407 1.687-1.878 1.324-1.878-.077 0-.627.45-1.22 1m-2.711 2.64c-1.358 1.425-2.111 2.806-1.377 2.524.357-.137.65-.444.65-.681 0-.237.391-.847.868-1.356.478-.508.793-.985.7-1.059-.092-.074-.471.183-.841.572m-192.48 4.981c-.137.358-.069.517.16.374.219-.135.501.022.627.349.125.327.486.693.801.814.364.14.253-.213-.306-.969-1.027-1.389-.976-1.366-1.282-.568M240 160.4c0 .22.251.4.557.4.307 0 .671.296.81.657.138.362.366.543.507.403.286-.287-1.013-1.86-1.536-1.86-.186 0-.338.18-.338.4m55.781 3.97c.126.203-.047.455-.384.559-.474.147-.46.176.062.13.753-.066 1.27-1.059.551-1.059-.252 0-.354.166-.229.37M27.5 178.276c-.385.1-.7.349-.7.553 0 .475.53.477 1.02.005.209-.202.83-.447 1.38-.546l1-.179-1-.008c-.55-.005-1.315.074-1.7.175M310 184c-.317.196-.444.489-.282.652.163.162.505.085.762-.172.604-.604.267-.942-.48-.48m-208.8 12.011c0 .347 1.553.97 1.801.721.077-.077-.296-.347-.83-.599s-.971-.307-.971-.122m186.624.202c-.622.47-.652.587-.149.587.345 0 .851-.27 1.125-.6.634-.763.039-.756-.976.013m-187.811 21.678c-.524.591-.51.632.133.385.396-.152.795-.276.887-.276.092 0 .167-.18.167-.4 0-.588-.519-.461-1.187.291m-25.037 31.096c-1.01.764-.572.772.878.015.63-.328.865-.598.522-.6-.342-.001-.972.262-1.4.585M182.8 263.751c0 .083.27.375.6.649.491.408.6.38.6-.151 0-.357-.27-.649-.6-.649-.33 0-.6.068-.6.151m108.4 18.6c0 .193.27.575.6.849.651.541.733.411.357-.567-.257-.67-.957-.876-.957-.282m-29.6 2.441c0 .181.54.518 1.2.748.66.23 1.2.351 1.2.268 0-.082-.54-.419-1.2-.748-.66-.329-1.2-.45-1.2-.268M25.609 305.071c.005.181.367.779.805 1.329.634.796.739.837.514.2-.309-.872-1.333-2.06-1.319-1.529m157.671 5.409c-.564.564-.627 1.12-.127 1.12.195 0 .448-.36.563-.8.244-.934.206-.962-.436-.32m127.12 36.028c0 .334.27.71.6.837.33.126.6.078.6-.109 0-.186-.27-.562-.6-.836-.488-.405-.6-.385-.6.108" fill="#e43810"/></g></svg>
