<svg id="svg" version="1.1" xmlns="http://www.w3.org/2000/svg" xmlns:xlink="http://www.w3.org/1999/xlink" width="400" height="400" viewBox="0, 0, 400,400"><g id="svgg"><path id="path0" d="M196.000 58.292 C 122.606 60.553,64.476 114.770,57.786 187.200 C 48.682 285.783,140.122 363.099,236.344 338.176 C 287.573 324.907,329.435 280.539,338.787 229.600 C 339.211 227.290,339.842 224.183,340.189 222.697 C 341.539 216.905,341.960 198.873,341.017 187.200 C 340.382 179.333,339.770 175.954,336.600 162.800 C 335.660 158.900,333.524 152.872,330.767 146.338 C 329.685 143.774,328.800 141.594,328.800 141.495 C 328.800 140.647,321.306 127.338,318.154 122.587 C 308.966 108.738,300.916 99.990,286.000 87.645 C 280.430 83.035,266.133 74.604,256.400 70.190 C 247.848 66.311,235.922 62.513,227.600 61.018 C 225.730 60.682,223.570 60.225,222.800 60.002 C 219.887 59.160,202.939 58.079,196.000 58.292 M166.000 111.380 C 184.467 115.002,191.862 126.111,187.775 144.089 C 187.211 146.570,186.310 150.580,185.772 153.000 C 185.235 155.420,184.373 159.290,183.856 161.600 C 182.405 168.096,182.711 168.338,189.907 166.382 C 192.488 165.681,196.220 164.673,198.200 164.143 C 202.515 162.988,206.377 161.922,210.303 160.803 C 224.203 156.840,224.180 156.829,226.932 168.200 C 227.251 169.520,228.089 172.760,228.794 175.400 C 230.750 182.725,230.853 183.249,230.582 184.481 C 230.194 186.247,228.069 187.234,221.000 188.929 C 219.680 189.246,215.360 190.352,211.400 191.387 C 203.402 193.477,199.127 194.581,187.490 197.563 C 176.250 200.443,176.800 200.012,176.800 205.944 C 176.800 211.438,177.649 212.364,181.603 211.183 C 182.371 210.953,186.600 209.791,191.000 208.601 C 195.400 207.411,200.710 205.966,202.800 205.390 C 204.890 204.814,207.860 204.012,209.400 203.606 C 212.079 202.901,217.655 201.405,225.400 199.314 C 232.643 197.359,232.258 197.415,233.367 198.142 C 234.931 199.166,235.464 200.562,237.825 209.807 C 239.030 214.528,240.192 218.854,240.408 219.421 C 240.624 219.988,240.800 221.423,240.800 222.610 C 240.800 226.130,242.096 225.593,219.400 231.480 C 215.660 232.450,210.170 233.880,207.200 234.658 C 204.230 235.436,200.810 236.310,199.600 236.600 C 186.307 239.783,185.666 240.228,189.500 243.606 C 199.596 252.503,215.966 255.166,230.717 250.311 C 235.049 248.885,237.235 247.632,243.834 242.791 C 251.159 237.417,251.657 237.369,254.983 241.726 C 255.854 242.867,257.844 245.420,259.407 247.400 C 271.083 262.197,271.322 262.576,270.422 264.943 C 269.762 266.677,256.421 276.168,250.400 279.187 C 216.731 296.068,176.036 286.034,153.924 255.400 C 149.490 249.257,150.237 249.410,139.041 252.350 C 130.157 254.683,131.202 255.989,126.000 236.073 C 123.425 226.212,123.403 226.240,135.716 223.425 C 141.279 222.153,141.820 221.454,141.439 216.033 C 140.984 209.561,140.975 209.558,131.029 212.245 C 119.920 215.246,120.149 215.382,117.475 204.200 C 117.159 202.880,116.248 199.435,115.451 196.544 C 112.654 186.412,111.644 187.409,129.600 182.587 C 142.989 178.992,142.656 179.162,143.234 175.600 C 143.465 174.170,143.996 171.470,144.412 169.600 C 144.828 167.730,145.441 164.760,145.773 163.000 C 146.392 159.728,147.374 155.058,149.604 144.800 C 150.298 141.610,151.104 137.740,151.395 136.200 C 151.687 134.660,152.200 132.320,152.535 131.000 C 152.871 129.680,153.265 127.700,153.412 126.600 C 153.558 125.500,154.002 123.250,154.398 121.600 C 154.794 119.950,155.338 117.380,155.606 115.889 C 156.336 111.840,158.089 109.785,160.400 110.272 C 160.730 110.342,163.250 110.840,166.000 111.380 " stroke="none" fill="#3757bb" fill-rule="evenodd"></path><path id="path1" d="M0.000 200.000 L 0.000 400.000 200.000 400.000 L 400.000 400.000 400.000 200.000 L 400.000 0.000 200.000 0.000 L 0.000 0.000 0.000 200.000 M211.850 55.170 C 214.462 55.593,218.580 56.037,221.000 56.157 C 224.254 56.317,226.153 56.638,228.292 57.387 C 229.883 57.944,231.802 58.400,232.557 58.400 C 233.311 58.400,234.890 58.745,236.064 59.167 C 237.239 59.589,239.280 60.205,240.600 60.536 C 244.933 61.622,252.925 64.481,257.000 66.402 C 259.200 67.439,261.450 68.424,262.000 68.592 C 262.550 68.760,263.180 69.037,263.400 69.208 C 263.620 69.379,266.050 70.682,268.800 72.105 C 273.672 74.624,275.900 75.966,280.386 79.082 C 281.589 79.917,283.209 80.969,283.987 81.420 C 284.764 81.871,286.851 83.401,288.624 84.820 C 290.397 86.239,293.439 88.660,295.384 90.200 C 300.085 93.922,309.067 103.113,310.727 105.900 C 311.457 107.125,313.347 109.608,314.927 111.417 C 317.601 114.479,324.432 124.448,325.449 126.773 C 325.696 127.338,326.731 129.142,327.749 130.782 C 328.767 132.421,329.600 133.912,329.600 134.094 C 329.600 134.275,330.851 136.993,332.380 140.132 C 333.910 143.271,335.343 146.641,335.565 147.620 C 335.788 148.599,336.768 151.588,337.743 154.262 C 338.719 156.936,339.647 159.906,339.806 160.862 C 339.966 161.818,340.413 163.230,340.800 164.000 C 341.187 164.770,341.696 166.840,341.932 168.600 C 342.167 170.360,342.652 172.610,343.009 173.600 C 343.396 174.672,343.794 177.666,343.994 181.000 C 344.178 184.080,344.632 187.860,345.003 189.400 C 345.778 192.621,345.654 209.541,344.832 212.718 C 344.588 213.663,344.221 216.917,344.017 219.949 C 343.781 223.459,343.361 226.323,342.860 227.831 C 342.427 229.134,341.981 231.190,341.869 232.400 C 341.757 233.610,341.295 235.410,340.842 236.400 C 340.388 237.390,340.014 238.800,340.009 239.533 C 340.001 240.694,338.974 244.315,337.550 248.200 C 335.963 252.533,335.104 254.601,334.589 255.337 C 334.265 255.799,333.994 256.453,333.987 256.789 C 333.981 257.125,333.532 258.300,332.991 259.400 C 332.450 260.500,332.006 261.781,332.004 262.246 C 332.002 262.711,331.667 263.521,331.260 264.046 C 330.853 264.571,329.562 266.800,328.392 269.000 C 326.295 272.942,325.256 274.677,321.686 280.200 C 317.955 285.973,316.639 287.843,315.215 289.400 C 314.411 290.280,312.953 292.076,311.976 293.392 C 307.558 299.342,295.070 311.225,286.956 317.200 C 277.838 323.914,266.025 330.721,257.800 334.001 C 256.260 334.615,253.830 335.597,252.400 336.183 C 248.361 337.840,243.182 339.618,241.200 340.029 C 240.210 340.234,238.500 340.665,237.400 340.988 C 232.004 342.572,224.942 344.011,220.800 344.372 C 218.270 344.592,215.570 344.979,214.800 345.231 C 212.618 345.945,186.028 346.466,184.996 345.815 C 183.896 345.120,180.361 344.400,178.056 344.400 C 177.008 344.400,174.002 343.862,171.376 343.205 C 168.749 342.548,166.202 342.008,165.715 342.005 C 165.228 342.002,163.968 341.664,162.915 341.252 C 161.862 340.841,159.922 340.373,158.605 340.212 C 157.287 340.050,155.757 339.601,155.205 339.212 C 154.652 338.824,153.300 338.224,152.200 337.879 C 141.958 334.669,126.196 326.901,119.600 321.812 C 118.390 320.879,116.802 319.808,116.070 319.432 C 113.056 317.883,103.440 310.253,100.423 307.015 C 99.200 305.703,95.900 302.223,93.089 299.282 C 85.284 291.115,70.400 270.232,70.400 267.447 C 70.400 267.356,69.435 265.238,68.255 262.740 C 65.850 257.652,64.638 254.791,63.027 250.400 C 62.421 248.750,61.506 246.305,60.993 244.967 C 60.481 243.628,59.944 241.828,59.800 240.967 C 59.656 240.105,59.207 238.500,58.801 237.400 C 58.396 236.300,57.949 234.425,57.809 233.233 C 57.669 232.041,57.282 230.421,56.948 229.633 C 56.615 228.845,56.092 225.680,55.786 222.600 C 55.481 219.520,55.032 216.370,54.789 215.600 C 53.827 212.553,53.781 188.531,54.729 184.338 C 55.194 182.282,55.769 178.753,56.008 176.495 C 56.246 174.237,56.700 171.537,57.016 170.495 C 57.333 169.453,57.593 167.481,57.596 166.114 C 57.599 164.076,57.738 163.554,58.367 163.218 C 58.897 162.934,59.335 161.907,59.783 159.904 C 60.140 158.307,60.769 156.100,61.180 155.000 C 61.591 153.900,62.424 151.650,63.031 150.000 C 66.409 140.808,70.844 131.348,74.187 126.200 C 75.330 124.440,77.234 121.470,78.417 119.600 C 84.790 109.528,98.178 94.444,106.048 88.468 C 107.232 87.569,109.730 85.643,111.600 84.188 C 115.990 80.771,121.907 76.853,125.200 75.182 C 126.630 74.457,128.617 73.276,129.616 72.559 C 131.234 71.397,135.852 69.037,140.247 67.124 C 141.101 66.753,142.700 66.057,143.800 65.579 C 144.900 65.101,146.790 64.384,148.000 63.987 C 150.015 63.325,153.671 61.973,157.200 60.586 C 157.970 60.283,159.197 60.027,159.926 60.018 C 160.655 60.008,162.185 59.575,163.326 59.056 C 164.550 58.499,166.547 58.019,168.200 57.885 C 169.740 57.759,171.810 57.363,172.800 57.004 C 173.822 56.634,176.934 56.194,180.000 55.985 C 182.970 55.784,186.210 55.357,187.200 55.036 C 190.101 54.097,205.754 54.182,211.850 55.170 M324.040 112.442 C 325.325 113.819,325.473 114.476,324.649 115.160 C 323.633 116.002,321.337 114.565,320.660 112.664 C 319.991 110.787,322.349 110.632,324.040 112.442 M159.180 114.837 C 158.934 115.298,158.476 117.501,158.162 119.734 C 157.849 121.966,157.336 124.514,157.022 125.396 C 156.708 126.278,156.336 128.169,156.195 129.598 C 156.054 131.027,155.603 133.149,155.194 134.313 C 154.785 135.477,154.243 137.794,153.991 139.462 C 153.738 141.131,153.286 143.190,152.986 144.039 C 152.687 144.888,152.315 146.711,152.161 148.091 C 152.007 149.471,151.552 151.562,151.149 152.737 C 150.747 153.912,150.308 155.802,150.175 156.937 C 150.041 158.072,149.599 160.080,149.193 161.400 C 148.786 162.720,148.338 164.970,148.197 166.400 C 148.056 167.830,147.589 170.290,147.158 171.868 C 146.709 173.516,146.413 175.727,146.463 177.068 C 146.595 180.619,145.936 181.368,141.800 182.368 C 140.216 182.751,139.030 183.110,133.200 184.971 C 131.550 185.498,129.480 186.050,128.600 186.198 C 127.720 186.346,126.010 186.793,124.800 187.192 C 123.590 187.592,121.654 188.044,120.498 188.197 C 119.341 188.350,118.004 188.792,117.527 189.179 L 116.659 189.882 117.480 192.041 C 117.931 193.228,118.492 195.100,118.725 196.200 C 119.638 200.500,120.801 205.074,121.369 206.600 C 121.697 207.480,121.973 208.571,121.982 209.024 C 122.022 210.899,122.852 211.348,125.026 210.671 C 126.112 210.332,127.900 209.842,129.000 209.581 C 131.901 208.894,137.130 207.368,139.116 206.630 C 143.088 205.155,143.968 206.573,144.411 215.167 C 144.860 223.876,143.346 226.457,137.786 226.457 C 136.494 226.457,134.799 226.726,134.019 227.054 C 133.238 227.383,131.718 227.820,130.640 228.027 C 127.987 228.535,127.528 228.980,127.830 230.755 C 128.319 233.629,128.812 235.091,129.598 235.998 C 130.187 236.676,130.400 237.495,130.400 239.073 C 130.400 240.467,130.752 242.060,131.400 243.600 C 131.950 244.907,132.400 246.623,132.400 247.414 C 132.400 250.746,133.314 250.942,139.800 249.003 C 150.673 245.752,151.303 245.862,155.099 251.676 C 161.034 260.767,171.507 270.315,181.395 275.649 C 185.994 278.129,196.246 282.000,198.217 282.000 C 198.768 282.000,200.250 282.382,201.510 282.848 C 204.181 283.837,221.152 284.417,226.000 283.685 C 236.888 282.041,250.424 276.630,256.863 271.348 C 258.035 270.387,259.145 269.600,259.329 269.600 C 259.961 269.600,267.200 263.911,267.200 263.414 C 267.200 263.140,266.777 262.460,266.260 261.902 C 265.743 261.344,264.903 260.193,264.395 259.344 C 263.887 258.495,262.629 256.810,261.601 255.600 C 260.573 254.390,259.041 252.410,258.198 251.200 C 257.355 249.990,255.906 248.190,254.978 247.200 C 254.050 246.210,252.818 244.635,252.240 243.700 C 250.953 241.617,250.779 241.611,248.237 243.567 C 241.521 248.735,237.762 251.043,233.614 252.548 C 229.122 254.177,226.330 255.106,224.400 255.613 C 222.599 256.086,210.295 256.078,208.200 255.602 C 202.796 254.374,196.778 252.232,194.000 250.548 C 193.230 250.082,192.390 249.632,192.134 249.550 C 190.889 249.149,183.609 242.987,183.192 241.982 C 182.003 239.109,184.343 236.846,189.404 235.976 C 190.942 235.712,193.062 235.159,194.115 234.748 C 195.168 234.336,196.387 234.000,196.825 234.000 C 197.262 234.000,198.650 233.628,199.910 233.174 C 201.169 232.720,203.219 232.196,204.465 232.010 C 205.711 231.823,207.331 231.398,208.065 231.066 C 208.799 230.733,210.660 230.187,212.200 229.852 C 216.667 228.881,222.509 227.373,223.647 226.898 C 224.223 226.657,225.692 226.276,226.912 226.050 C 228.131 225.825,229.762 225.376,230.536 225.052 C 231.310 224.729,232.938 224.340,234.155 224.188 C 237.545 223.765,237.943 223.327,237.109 220.938 C 236.737 219.872,236.247 217.603,236.020 215.895 C 235.793 214.188,235.332 212.133,234.996 211.329 C 234.660 210.525,234.134 208.862,233.826 207.634 C 233.177 205.041,232.075 201.934,231.649 201.497 C 231.313 201.152,226.443 202.187,224.538 203.007 C 223.843 203.306,222.141 203.757,220.755 204.008 C 219.368 204.260,217.776 204.699,217.217 204.985 C 216.658 205.271,214.850 205.728,213.200 206.001 C 211.550 206.274,209.570 206.742,208.800 207.042 C 208.030 207.342,206.230 207.849,204.800 208.169 C 202.024 208.789,197.082 210.407,195.693 211.150 C 195.230 211.398,193.444 211.783,191.725 212.005 C 190.006 212.228,187.430 212.761,186.000 213.190 C 175.596 216.312,174.015 216.306,173.264 213.143 C 172.804 211.207,172.576 210.855,171.664 210.668 C 170.222 210.372,169.014 209.424,169.362 208.861 C 169.774 208.195,171.438 208.295,172.173 209.030 C 172.846 209.703,172.840 209.711,173.389 207.600 C 173.533 207.050,173.787 204.843,173.955 202.695 C 174.362 197.471,175.011 196.721,179.691 196.059 C 181.482 195.806,184.039 195.262,185.374 194.849 C 187.936 194.058,191.802 193.039,194.800 192.364 C 195.790 192.141,198.040 191.532,199.800 191.010 C 206.788 188.940,208.718 188.445,211.600 187.985 C 213.250 187.722,214.940 187.328,215.354 187.110 C 215.769 186.892,217.389 186.378,218.954 185.968 C 227.652 183.690,227.196 183.860,227.198 182.886 C 227.199 182.383,226.951 181.573,226.647 181.086 C 226.343 180.599,225.980 179.149,225.840 177.866 C 225.700 176.582,225.316 175.011,224.987 174.376 C 224.659 173.740,224.276 172.091,224.136 170.710 C 223.996 169.330,223.489 167.300,223.008 166.200 C 222.528 165.100,222.011 163.705,221.860 163.100 C 221.508 161.695,219.296 161.593,215.763 162.821 C 214.463 163.272,212.230 163.892,210.800 164.199 C 207.431 164.923,203.466 165.953,201.200 166.694 C 200.210 167.018,198.050 167.589,196.400 167.964 C 193.090 168.716,189.725 169.692,186.464 170.845 C 179.288 173.382,178.036 170.363,181.220 158.200 C 181.623 156.660,182.080 154.503,182.236 153.407 C 182.391 152.310,182.748 150.864,183.028 150.194 C 183.309 149.523,183.740 147.500,183.986 145.699 C 184.233 143.898,184.787 141.400,185.217 140.149 C 188.469 130.698,180.363 117.483,170.397 115.988 C 168.748 115.740,166.256 115.192,164.858 114.769 C 161.459 113.741,159.756 113.761,159.180 114.837 M334.243 119.100 C 334.872 119.928,334.969 121.848,334.400 122.200 C 334.180 122.336,334.000 123.135,334.000 123.975 C 334.000 125.432,333.221 126.688,332.663 126.130 C 332.518 125.985,332.400 125.054,332.400 124.062 C 332.400 123.069,332.178 121.642,331.906 120.892 C 331.191 118.914,333.031 117.503,334.243 119.100 M176.841 123.314 C 178.204 124.230,178.805 125.755,178.087 126.473 C 177.517 127.043,174.982 125.849,174.187 124.636 C 172.796 122.513,174.435 121.696,176.841 123.314 M71.131 125.527 C 71.284 126.604,70.223 128.400,69.434 128.400 C 68.313 128.400,68.238 126.224,69.312 124.883 C 69.931 124.110,70.982 124.482,71.131 125.527 M161.200 126.213 C 161.200 127.035,160.004 127.454,159.586 126.777 C 159.143 126.061,159.471 125.600,160.424 125.600 C 160.854 125.600,161.200 125.873,161.200 126.213 M342.332 144.046 C 341.948 144.286,341.763 144.088,341.668 143.333 C 341.595 142.758,341.775 142.137,342.068 141.954 C 342.452 141.714,342.637 141.912,342.732 142.667 C 342.805 143.242,342.625 143.863,342.332 144.046 M170.149 163.144 C 171.571 164.715,169.288 167.373,166.728 167.127 C 164.491 166.913,164.902 164.336,167.405 162.885 C 168.554 162.219,169.383 162.297,170.149 163.144 M144.000 186.792 C 144.769 187.278,144.804 190.431,144.051 191.339 C 143.413 192.107,141.180 192.220,140.480 191.520 C 138.527 189.567,141.684 185.327,144.000 186.792 M161.291 188.395 C 161.143 189.697,160.074 190.800,158.962 190.800 C 157.750 190.800,157.393 190.133,157.999 189.003 C 158.988 187.155,161.484 186.694,161.291 188.395 M127.119 190.635 C 127.295 191.863,126.332 192.506,125.049 192.018 C 124.472 191.799,124.000 191.381,124.000 191.090 C 124.000 189.500,126.897 189.078,127.119 190.635 M220.734 207.550 C 221.159 207.820,221.131 207.941,220.597 208.146 C 219.805 208.450,219.090 208.102,219.417 207.572 C 219.699 207.115,220.038 207.110,220.734 207.550 M230.000 211.400 C 230.000 211.950,229.820 212.400,229.600 212.400 C 229.153 212.400,229.052 211.082,229.467 210.667 C 229.908 210.226,230.000 210.353,230.000 211.400 M162.697 220.294 C 163.320 221.110,162.497 222.129,160.316 223.243 C 158.403 224.219,158.400 224.218,158.400 222.774 C 158.400 219.679,161.056 218.146,162.697 220.294 M192.934 228.630 C 195.602 229.654,192.890 231.835,187.469 233.028 C 181.561 234.327,180.567 234.383,180.739 233.404 C 181.365 229.843,188.657 226.989,192.934 228.630 M179.024 236.582 C 178.749 238.411,177.753 240.805,177.271 240.794 C 174.757 240.737,176.203 234.872,178.745 234.813 C 179.165 234.803,179.229 235.211,179.024 236.582 M335.947 265.751 C 336.390 266.934,337.122 268.509,337.575 269.251 C 338.987 271.568,338.281 273.057,336.633 271.237 C 336.253 270.817,335.370 270.247,334.671 269.971 C 331.954 268.897,331.449 267.693,332.580 264.987 C 333.529 262.715,334.930 263.032,335.947 265.751 M247.128 264.657 C 248.057 266.317,246.344 267.600,244.425 266.680 C 243.271 266.127,242.856 264.864,243.661 264.354 C 244.591 263.764,246.733 263.951,247.128 264.657 M222.225 270.440 C 222.673 271.165,221.120 272.409,220.100 272.142 C 219.249 271.919,218.886 270.847,219.467 270.267 C 219.899 269.834,221.929 269.962,222.225 270.440 M319.525 290.300 C 319.363 291.153,317.600 291.515,317.600 290.694 C 317.600 289.929,317.990 289.600,318.896 289.600 C 319.407 289.600,319.615 289.831,319.525 290.300 M84.942 298.981 C 86.530 300.453,86.124 302.000,84.149 302.000 C 82.383 302.000,81.362 299.891,82.500 298.598 C 83.216 297.786,83.741 297.868,84.942 298.981 M87.600 303.126 C 87.600 304.037,86.207 303.444,86.069 302.473 C 85.950 301.636,86.012 301.601,86.769 302.074 C 87.226 302.359,87.600 302.832,87.600 303.126 M99.511 309.055 C 101.237 309.517,99.965 311.635,98.168 311.292 C 96.910 311.051,96.657 310.614,97.196 309.608 C 97.653 308.753,98.040 308.661,99.511 309.055 M291.306 317.039 C 291.626 317.360,291.207 318.400,290.757 318.400 C 290.561 318.400,290.400 318.040,290.400 317.600 C 290.400 316.820,290.824 316.558,291.306 317.039 M119.819 330.415 C 120.623 331.083,120.568 333.160,119.738 333.479 C 117.941 334.169,113.671 330.145,115.198 329.201 C 115.783 328.840,118.910 329.662,119.819 330.415 M279.800 338.957 C 279.800 341.595,275.589 342.288,274.953 339.755 C 274.560 338.190,275.434 337.545,277.764 337.681 C 279.715 337.795,279.800 337.848,279.800 338.957 M148.442 343.318 C 147.928 343.832,147.407 343.435,147.788 342.820 C 147.935 342.582,148.239 342.500,148.462 342.639 C 148.736 342.807,148.729 343.031,148.442 343.318 M247.540 345.826 C 247.984 346.208,246.968 346.799,245.876 346.794 C 244.150 346.786,243.159 346.158,244.000 345.607 C 244.504 345.276,247.086 345.436,247.540 345.826 " stroke="none" fill="#fbfbfc" fill-rule="evenodd"></path><path id="path2" d="M188.600 55.859 C 187.940 55.956,184.520 56.387,181.000 56.816 C 128.012 63.269,81.478 100.765,63.620 151.400 C 60.787 159.434,57.628 171.882,57.021 177.400 C 56.876 178.720,56.452 181.780,56.079 184.200 C 55.127 190.375,55.126 209.887,56.077 216.200 C 56.442 218.620,56.859 221.680,57.004 223.000 C 59.251 243.465,71.620 271.415,86.832 290.400 C 112.071 321.901,145.720 339.868,188.000 344.420 C 234.978 349.477,286.892 326.012,316.039 286.548 C 346.271 245.614,353.096 189.210,333.289 144.000 C 312.246 95.972,270.090 63.770,219.031 56.722 C 213.251 55.924,192.190 55.327,188.600 55.859 M214.200 59.007 C 218.160 59.332,222.030 59.779,222.800 60.002 C 223.570 60.225,225.730 60.682,227.600 61.018 C 235.922 62.513,247.848 66.311,256.400 70.190 C 266.133 74.604,280.430 83.035,286.000 87.645 C 300.916 99.990,308.966 108.738,318.154 122.587 C 321.306 127.338,328.800 140.647,328.800 141.495 C 328.800 141.594,329.685 143.774,330.767 146.338 C 333.524 152.872,335.660 158.900,336.600 162.800 C 339.770 175.954,340.382 179.333,341.017 187.200 C 341.960 198.873,341.539 216.905,340.189 222.697 C 339.842 224.183,339.211 227.290,338.787 229.600 C 325.189 303.664,249.593 354.574,174.000 340.575 C 69.358 321.196,21.946 198.162,86.534 113.600 C 116.668 74.146,162.069 54.732,214.200 59.007 M158.804 110.390 C 157.356 110.745,156.164 112.795,155.606 115.889 C 155.338 117.380,154.794 119.950,154.398 121.600 C 154.002 123.250,153.558 125.500,153.412 126.600 C 153.265 127.700,152.871 129.680,152.535 131.000 C 152.200 132.320,151.687 134.660,151.395 136.200 C 151.104 137.740,150.298 141.610,149.604 144.800 C 147.374 155.058,146.392 159.728,145.773 163.000 C 145.441 164.760,144.828 167.730,144.412 169.600 C 143.996 171.470,143.465 174.170,143.234 175.600 C 142.656 179.162,142.989 178.992,129.600 182.587 C 111.644 187.409,112.654 186.412,115.451 196.544 C 116.248 199.435,117.159 202.880,117.475 204.200 C 120.149 215.382,119.920 215.246,131.029 212.245 C 140.975 209.558,140.984 209.561,141.439 216.033 C 141.820 221.454,141.279 222.153,135.716 223.425 C 123.403 226.240,123.425 226.212,126.000 236.073 C 131.202 255.989,130.157 254.683,139.041 252.350 C 150.237 249.410,149.490 249.257,153.924 255.400 C 176.036 286.034,216.731 296.068,250.400 279.187 C 256.421 276.168,269.762 266.677,270.422 264.943 C 271.322 262.576,271.083 262.197,259.407 247.400 C 257.844 245.420,255.854 242.867,254.983 241.726 C 251.657 237.369,251.159 237.417,243.834 242.791 C 237.235 247.632,235.049 248.885,230.717 250.311 C 215.966 255.166,199.596 252.503,189.500 243.606 C 185.666 240.228,186.307 239.783,199.600 236.600 C 200.810 236.310,204.230 235.436,207.200 234.658 C 210.170 233.880,215.660 232.450,219.400 231.480 C 242.096 225.593,240.800 226.130,240.800 222.610 C 240.800 221.423,240.624 219.988,240.408 219.421 C 240.192 218.854,239.030 214.528,237.825 209.807 C 235.464 200.562,234.931 199.166,233.367 198.142 C 232.258 197.415,232.643 197.359,225.400 199.314 C 217.655 201.405,212.079 202.901,209.400 203.606 C 207.860 204.012,204.890 204.814,202.800 205.390 C 200.710 205.966,195.400 207.411,191.000 208.601 C 186.600 209.791,182.371 210.953,181.603 211.183 C 177.649 212.364,176.800 211.438,176.800 205.944 C 176.800 200.012,176.250 200.443,187.490 197.563 C 199.127 194.581,203.402 193.477,211.400 191.387 C 215.360 190.352,219.680 189.246,221.000 188.929 C 228.069 187.234,230.194 186.247,230.582 184.481 C 230.853 183.249,230.750 182.725,228.794 175.400 C 228.089 172.760,227.251 169.520,226.932 168.200 C 224.180 156.829,224.203 156.840,210.303 160.803 C 206.377 161.922,202.515 162.988,198.200 164.143 C 196.220 164.673,192.488 165.681,189.907 166.382 C 182.711 168.338,182.405 168.096,183.856 161.600 C 184.373 159.290,185.235 155.420,185.772 153.000 C 186.310 150.580,187.211 146.570,187.775 144.089 C 191.862 126.111,184.467 115.002,166.000 111.380 C 163.250 110.840,160.730 110.342,160.400 110.272 C 160.070 110.203,159.352 110.256,158.804 110.390 M168.573 114.250 C 181.832 117.698,189.168 128.532,186.240 140.342 C 185.932 141.584,185.102 145.390,184.394 148.800 C 183.687 152.210,182.665 156.798,182.123 158.994 C 180.647 164.980,180.471 168.071,181.546 169.146 C 182.931 170.531,183.569 170.411,203.600 165.020 C 223.687 159.614,222.057 159.534,223.850 166.006 C 227.957 180.823,228.446 183.181,227.615 184.182 C 227.128 184.768,222.854 186.201,218.200 187.337 C 215.923 187.893,211.897 188.944,205.200 190.732 C 198.702 192.467,193.969 193.716,188.800 195.060 C 185.830 195.832,182.058 196.813,180.417 197.240 C 175.659 198.478,174.780 199.857,174.834 206.000 C 174.912 214.770,175.362 214.952,188.400 211.476 C 190.490 210.919,193.910 210.013,196.000 209.463 C 198.090 208.913,201.870 207.894,204.400 207.198 C 206.930 206.503,210.980 205.420,213.400 204.792 C 215.820 204.164,219.240 203.268,221.000 202.801 C 234.062 199.339,232.590 198.470,235.971 211.628 C 237.069 215.903,238.151 220.015,238.375 220.766 C 238.895 222.510,238.572 223.780,237.470 224.336 C 236.610 224.770,205.875 232.942,193.284 236.084 C 182.742 238.715,182.017 240.529,189.304 246.038 C 201.280 255.093,218.303 257.346,232.986 251.820 C 236.858 250.362,238.224 249.559,244.162 245.243 C 251.720 239.749,250.234 239.063,260.952 252.991 C 269.466 264.056,269.099 263.232,266.551 265.554 C 244.061 286.045,210.759 291.057,183.800 278.010 C 172.410 272.497,163.702 265.231,156.129 254.921 C 150.106 246.721,151.501 247.093,139.036 250.369 C 132.929 251.973,132.007 251.634,130.963 247.400 C 130.503 245.535,128.893 239.341,127.431 233.816 C 125.882 227.961,126.306 227.584,137.316 225.033 C 143.186 223.673,143.712 222.830,143.240 215.541 C 142.679 206.899,143.035 207.002,127.600 211.003 C 121.705 212.531,121.818 212.577,120.647 208.200 C 120.294 206.880,119.558 204.180,119.011 202.200 C 115.153 188.234,115.128 188.441,120.832 187.019 C 122.024 186.722,124.710 186.021,126.800 185.462 C 128.890 184.902,132.754 183.886,135.386 183.203 C 144.426 180.858,144.293 180.995,145.993 172.200 C 146.673 168.680,147.574 164.270,147.996 162.400 C 148.417 160.530,149.031 157.650,149.360 156.000 C 149.689 154.350,150.424 150.930,150.993 148.400 C 151.562 145.870,152.464 141.730,152.996 139.200 C 153.529 136.670,154.430 132.440,155.000 129.800 C 155.569 127.160,156.391 123.200,156.827 121.000 C 158.643 111.830,158.837 111.718,168.573 114.250 " stroke="none" fill="#a1b2e2" fill-rule="evenodd"></path><path id="path3" d="M187.200 55.036 C 186.210 55.357,182.970 55.784,180.000 55.985 C 176.934 56.194,173.822 56.634,172.800 57.004 C 171.810 57.363,169.740 57.759,168.200 57.885 C 166.547 58.019,164.550 58.499,163.326 59.056 C 162.185 59.575,160.655 60.008,159.926 60.018 C 159.197 60.027,157.970 60.283,157.200 60.586 C 153.671 61.973,150.015 63.325,148.000 63.987 C 146.790 64.384,144.900 65.101,143.800 65.579 C 142.700 66.057,141.101 66.753,140.247 67.124 C 135.852 69.037,131.234 71.397,129.616 72.559 C 128.617 73.276,126.630 74.457,125.200 75.182 C 121.907 76.853,115.990 80.771,111.600 84.188 C 109.730 85.643,107.232 87.569,106.048 88.468 C 98.178 94.444,84.790 109.528,78.417 119.600 C 77.234 121.470,75.330 124.440,74.187 126.200 C 70.844 131.348,66.409 140.808,63.031 150.000 C 62.424 151.650,61.591 153.900,61.180 155.000 C 60.769 156.100,60.140 158.307,59.783 159.904 C 59.335 161.907,58.897 162.934,58.367 163.218 C 57.738 163.554,57.599 164.076,57.596 166.114 C 57.593 167.481,57.333 169.453,57.016 170.495 C 56.700 171.537,56.246 174.237,56.008 176.495 C 55.769 178.753,55.194 182.282,54.729 184.338 C 53.781 188.531,53.827 212.553,54.789 215.600 C 55.032 216.370,55.481 219.520,55.786 222.600 C 56.092 225.680,56.615 228.845,56.948 229.633 C 57.282 230.421,57.669 232.041,57.809 233.233 C 57.949 234.425,58.396 236.300,58.801 237.400 C 59.207 238.500,59.656 240.105,59.800 240.967 C 59.944 241.828,60.481 243.628,60.993 244.967 C 61.506 246.305,62.421 248.750,63.027 250.400 C 64.638 254.791,65.850 257.652,68.255 262.740 C 69.435 265.238,70.400 267.356,70.400 267.447 C 70.400 270.232,85.284 291.115,93.089 299.282 C 95.900 302.223,99.200 305.703,100.423 307.015 C 103.440 310.253,113.056 317.883,116.070 319.432 C 116.802 319.808,118.390 320.879,119.600 321.812 C 126.196 326.901,141.958 334.669,152.200 337.879 C 153.300 338.224,154.652 338.824,155.205 339.212 C 155.757 339.601,157.287 340.050,158.605 340.212 C 159.922 340.373,161.862 340.841,162.915 341.252 C 163.968 341.664,165.228 342.002,165.715 342.005 C 166.202 342.008,168.749 342.548,171.376 343.205 C 174.002 343.862,177.008 344.400,178.056 344.400 C 180.361 344.400,183.896 345.120,184.996 345.815 C 186.028 346.466,212.618 345.945,214.800 345.231 C 215.570 344.979,218.270 344.592,220.800 344.372 C 224.942 344.011,232.004 342.572,237.400 340.988 C 238.500 340.665,240.210 340.234,241.200 340.029 C 243.182 339.618,248.361 337.840,252.400 336.183 C 253.830 335.597,256.260 334.615,257.800 334.001 C 266.025 330.721,277.838 323.914,286.956 317.200 C 295.070 311.225,307.558 299.342,311.976 293.392 C 312.953 292.076,314.411 290.280,315.215 289.400 C 316.639 287.843,317.955 285.973,321.686 280.200 C 325.256 274.677,326.295 272.942,328.392 269.000 C 329.562 266.800,330.853 264.571,331.260 264.046 C 331.667 263.521,332.002 262.711,332.004 262.246 C 332.006 261.781,332.450 260.500,332.991 259.400 C 333.532 258.300,333.981 257.125,333.987 256.789 C 333.994 256.453,334.265 255.799,334.589 255.337 C 335.104 254.601,335.963 252.533,337.550 248.200 C 338.974 244.315,340.001 240.694,340.009 239.533 C 340.014 238.800,340.388 237.390,340.842 236.400 C 341.295 235.410,341.757 233.610,341.869 232.400 C 341.981 231.190,342.427 229.134,342.860 227.831 C 343.361 226.323,343.781 223.459,344.017 219.949 C 344.221 216.917,344.588 213.663,344.832 212.718 C 345.654 209.541,345.778 192.621,345.003 189.400 C 344.632 187.860,344.178 184.080,343.994 181.000 C 343.794 177.666,343.396 174.672,343.009 173.600 C 342.652 172.610,342.167 170.360,341.932 168.600 C 341.696 166.840,341.187 164.770,340.800 164.000 C 340.413 163.230,339.966 161.818,339.806 160.862 C 339.647 159.906,338.719 156.936,337.743 154.262 C 336.768 151.588,335.788 148.599,335.565 147.620 C 335.343 146.641,333.910 143.271,332.380 140.132 C 330.851 136.993,329.600 134.275,329.600 134.094 C 329.600 133.912,328.767 132.421,327.749 130.782 C 326.731 129.142,325.696 127.338,325.449 126.773 C 324.432 124.448,317.601 114.479,314.927 111.417 C 313.347 109.608,311.457 107.125,310.727 105.900 C 309.067 103.113,300.085 93.922,295.384 90.200 C 293.439 88.660,290.397 86.239,288.624 84.820 C 286.851 83.401,284.764 81.871,283.987 81.420 C 283.209 80.969,281.589 79.917,280.386 79.082 C 275.900 75.966,273.672 74.624,268.800 72.105 C 266.050 70.682,263.620 69.379,263.400 69.208 C 263.180 69.037,262.550 68.760,262.000 68.592 C 261.450 68.424,259.200 67.439,257.000 66.402 C 252.925 64.481,244.933 61.622,240.600 60.536 C 239.280 60.205,237.239 59.589,236.064 59.167 C 234.890 58.745,233.311 58.400,232.557 58.400 C 231.802 58.400,229.883 57.944,228.292 57.387 C 226.153 56.638,224.254 56.317,221.000 56.157 C 218.580 56.037,214.462 55.593,211.850 55.170 C 205.754 54.182,190.101 54.097,187.200 55.036 M219.031 56.722 C 270.090 63.770,312.246 95.972,333.289 144.000 C 364.562 215.381,329.512 302.197,256.928 333.137 C 179.806 366.012,89.768 326.305,63.233 247.717 C 60.208 238.758,57.596 228.396,57.004 223.000 C 56.859 221.680,56.442 218.620,56.077 216.200 C 55.126 209.887,55.127 190.375,56.079 184.200 C 56.452 181.780,56.876 178.720,57.021 177.400 C 57.628 171.882,60.787 159.434,63.620 151.400 C 81.478 100.765,128.012 63.269,181.000 56.816 C 184.520 56.387,187.940 55.956,188.600 55.859 C 192.190 55.327,213.251 55.924,219.031 56.722 M320.622 111.564 C 319.711 113.038,323.321 116.262,324.649 115.160 C 325.473 114.476,325.325 113.819,324.040 112.442 C 322.907 111.230,321.113 110.769,320.622 111.564 M159.151 113.455 C 158.313 114.416,157.802 116.074,156.827 121.000 C 156.391 123.200,155.569 127.160,155.000 129.800 C 154.430 132.440,153.529 136.670,152.996 139.200 C 152.464 141.730,151.562 145.870,150.993 148.400 C 150.424 150.930,149.689 154.350,149.360 156.000 C 149.031 157.650,148.417 160.530,147.996 162.400 C 147.574 164.270,146.673 168.680,145.993 172.200 C 144.293 180.995,144.426 180.858,135.386 183.203 C 132.754 183.886,128.890 184.902,126.800 185.462 C 124.710 186.021,122.024 186.722,120.832 187.019 C 115.128 188.441,115.153 188.234,119.011 202.200 C 119.558 204.180,120.294 206.880,120.647 208.200 C 121.818 212.577,121.705 212.531,127.600 211.003 C 143.035 207.002,142.679 206.899,143.240 215.541 C 143.712 222.830,143.186 223.673,137.316 225.033 C 126.306 227.584,125.882 227.961,127.431 233.816 C 128.893 239.341,130.503 245.535,130.963 247.400 C 132.007 251.634,132.929 251.973,139.036 250.369 C 151.501 247.093,150.106 246.721,156.129 254.921 C 176.693 282.918,212.513 292.778,244.828 279.338 C 254.972 275.118,269.164 264.995,268.127 262.719 C 267.568 261.492,254.762 244.814,252.775 242.726 C 250.752 240.599,250.415 240.697,244.162 245.243 C 238.224 249.559,236.858 250.362,232.986 251.820 C 218.303 257.346,201.280 255.093,189.304 246.038 C 182.017 240.529,182.742 238.715,193.284 236.084 C 205.875 232.942,236.610 224.770,237.470 224.336 C 238.572 223.780,238.895 222.510,238.375 220.766 C 238.151 220.015,237.069 215.903,235.971 211.628 C 232.590 198.470,234.062 199.339,221.000 202.801 C 219.240 203.268,215.820 204.164,213.400 204.792 C 210.980 205.420,206.930 206.503,204.400 207.198 C 201.870 207.894,198.090 208.913,196.000 209.463 C 193.910 210.013,190.490 210.919,188.400 211.476 C 175.362 214.952,174.912 214.770,174.834 206.000 C 174.780 199.857,175.659 198.478,180.417 197.240 C 182.058 196.813,185.830 195.832,188.800 195.060 C 193.969 193.716,198.702 192.467,205.200 190.732 C 211.897 188.944,215.923 187.893,218.200 187.337 C 222.854 186.201,227.128 184.768,227.615 184.182 C 228.446 183.181,227.957 180.823,223.850 166.006 C 222.057 159.534,223.687 159.614,203.600 165.020 C 183.569 170.411,182.931 170.531,181.546 169.146 C 180.471 168.071,180.647 164.980,182.123 158.994 C 182.665 156.798,183.687 152.210,184.394 148.800 C 185.102 145.390,185.932 141.584,186.240 140.342 C 188.502 131.219,183.870 121.147,175.387 116.744 C 170.120 114.010,160.386 112.038,159.151 113.455 M164.858 114.769 C 166.256 115.192,168.748 115.740,170.397 115.988 C 180.363 117.483,188.469 130.698,185.217 140.149 C 184.787 141.400,184.233 143.898,183.986 145.699 C 183.740 147.500,183.309 149.523,183.028 150.194 C 182.748 150.864,182.391 152.310,182.236 153.407 C 182.080 154.503,181.623 156.660,181.220 158.200 C 178.036 170.363,179.288 173.382,186.464 170.845 C 189.725 169.692,193.090 168.716,196.400 167.964 C 198.050 167.589,200.210 167.018,201.200 166.694 C 203.466 165.953,207.431 164.923,210.800 164.199 C 212.230 163.892,214.463 163.272,215.763 162.821 C 219.296 161.593,221.508 161.695,221.860 163.100 C 222.011 163.705,222.528 165.100,223.008 166.200 C 223.489 167.300,223.996 169.330,224.136 170.710 C 224.276 172.091,224.659 173.740,224.987 174.376 C 225.316 175.011,225.700 176.582,225.840 177.866 C 225.980 179.149,226.343 180.599,226.647 181.086 C 226.951 181.573,227.199 182.383,227.198 182.886 C 227.196 183.860,227.652 183.690,218.954 185.968 C 217.389 186.378,215.769 186.892,215.354 187.110 C 214.940 187.328,213.250 187.722,211.600 187.985 C 208.718 188.445,206.788 188.940,199.800 191.010 C 198.040 191.532,195.790 192.141,194.800 192.364 C 191.802 193.039,187.936 194.058,185.374 194.849 C 184.039 195.262,181.482 195.806,179.691 196.059 C 175.011 196.721,174.362 197.471,173.955 202.695 C 173.787 204.843,173.533 207.050,173.389 207.600 C 172.840 209.711,172.846 209.703,172.173 209.030 C 171.438 208.295,169.774 208.195,169.362 208.861 C 169.014 209.424,170.222 210.372,171.664 210.668 C 172.576 210.855,172.804 211.207,173.264 213.143 C 174.015 216.306,175.596 216.312,186.000 213.190 C 187.430 212.761,190.006 212.228,191.725 212.005 C 193.444 211.783,195.230 211.398,195.693 211.150 C 197.082 210.407,202.024 208.789,204.800 208.169 C 206.230 207.849,208.030 207.342,208.800 207.042 C 209.570 206.742,211.550 206.274,213.200 206.001 C 214.850 205.728,216.658 205.271,217.217 204.985 C 217.776 204.699,219.368 204.260,220.755 204.008 C 222.141 203.757,223.843 203.306,224.538 203.007 C 226.443 202.187,231.313 201.152,231.649 201.497 C 232.075 201.934,233.177 205.041,233.826 207.634 C 234.134 208.862,234.660 210.525,234.996 211.329 C 235.332 212.133,235.793 214.188,236.020 215.895 C 236.247 217.603,236.737 219.872,237.109 220.938 C 237.943 223.327,237.545 223.765,234.155 224.188 C 232.938 224.340,231.310 224.729,230.536 225.052 C 229.762 225.376,228.131 225.825,226.912 226.050 C 225.692 226.276,224.223 226.657,223.647 226.898 C 222.509 227.373,216.667 228.881,212.200 229.852 C 210.660 230.187,208.799 230.733,208.065 231.066 C 207.331 231.398,205.711 231.823,204.465 232.010 C 203.219 232.196,201.169 232.720,199.910 233.174 C 198.650 233.628,197.262 234.000,196.825 234.000 C 196.387 234.000,195.168 234.336,194.115 234.748 C 193.062 235.159,190.942 235.712,189.404 235.976 C 184.343 236.846,182.003 239.109,183.192 241.982 C 183.609 242.987,190.889 249.149,192.134 249.550 C 192.390 249.632,193.230 250.082,194.000 250.548 C 196.778 252.232,202.796 254.374,208.200 255.602 C 210.295 256.078,222.599 256.086,224.400 255.613 C 226.330 255.106,229.122 254.177,233.614 252.548 C 237.762 251.043,241.521 248.735,248.237 243.567 C 250.779 241.611,250.953 241.617,252.240 243.700 C 252.818 244.635,254.050 246.210,254.978 247.200 C 255.906 248.190,257.355 249.990,258.198 251.200 C 259.041 252.410,260.573 254.390,261.601 255.600 C 262.629 256.810,263.887 258.495,264.395 259.344 C 264.903 260.193,265.743 261.344,266.260 261.902 C 266.777 262.460,267.200 263.140,267.200 263.414 C 267.200 263.911,259.961 269.600,259.329 269.600 C 259.145 269.600,258.035 270.387,256.863 271.348 C 250.424 276.630,236.888 282.041,226.000 283.685 C 221.152 284.417,204.181 283.837,201.510 282.848 C 200.250 282.382,198.768 282.000,198.217 282.000 C 196.246 282.000,185.994 278.129,181.395 275.649 C 171.507 270.315,161.034 260.767,155.099 251.676 C 151.303 245.862,150.673 245.752,139.800 249.003 C 133.314 250.942,132.400 250.746,132.400 247.414 C 132.400 246.623,131.950 244.907,131.400 243.600 C 130.752 242.060,130.400 240.467,130.400 239.073 C 130.400 237.495,130.187 236.676,129.598 235.998 C 128.812 235.091,128.319 233.629,127.830 230.755 C 127.528 228.980,127.987 228.535,130.640 228.027 C 131.718 227.820,133.238 227.383,134.019 227.054 C 134.799 226.726,136.494 226.457,137.786 226.457 C 143.346 226.457,144.860 223.876,144.411 215.167 C 143.968 206.573,143.088 205.155,139.116 206.630 C 137.130 207.368,131.901 208.894,129.000 209.581 C 127.900 209.842,126.112 210.332,125.026 210.671 C 122.852 211.348,122.022 210.899,121.982 209.024 C 121.973 208.571,121.697 207.480,121.369 206.600 C 120.801 205.074,119.638 200.500,118.725 196.200 C 118.492 195.100,117.931 193.228,117.480 192.041 L 116.659 189.882 117.527 189.179 C 118.004 188.792,119.341 188.350,120.498 188.197 C 121.654 188.044,123.590 187.592,124.800 187.192 C 126.010 186.793,127.720 186.346,128.600 186.198 C 129.480 186.050,131.550 185.498,133.200 184.971 C 139.030 183.110,140.216 182.751,141.800 182.368 C 145.936 181.368,146.595 180.619,146.463 177.068 C 146.413 175.727,146.709 173.516,147.158 171.868 C 147.589 170.290,148.056 167.830,148.197 166.400 C 148.338 164.970,148.786 162.720,149.193 161.400 C 149.599 160.080,150.041 158.072,150.175 156.937 C 150.308 155.802,150.747 153.912,151.149 152.737 C 151.552 151.562,152.007 149.471,152.161 148.091 C 152.315 146.711,152.687 144.888,152.986 144.039 C 153.286 143.190,153.738 141.131,153.991 139.462 C 154.243 137.794,154.785 135.477,155.194 134.313 C 155.603 133.149,156.054 131.027,156.195 129.598 C 156.336 128.169,156.708 126.278,157.022 125.396 C 157.336 124.514,157.849 121.966,158.162 119.734 C 159.039 113.485,159.495 113.147,164.858 114.769 M332.183 118.963 C 331.497 119.465,331.466 119.675,331.906 120.892 C 332.178 121.642,332.400 123.069,332.400 124.062 C 332.400 125.054,332.518 125.985,332.663 126.130 C 333.221 126.688,334.000 125.432,334.000 123.975 C 334.000 123.135,334.180 122.336,334.400 122.200 C 334.969 121.848,334.872 119.928,334.243 119.100 C 333.600 118.253,333.191 118.226,332.183 118.963 M173.743 123.003 C 173.192 124.439,177.044 127.516,178.087 126.473 C 178.805 125.755,178.204 124.230,176.841 123.314 C 175.272 122.259,174.075 122.139,173.743 123.003 M69.312 124.883 C 68.238 126.224,68.313 128.400,69.434 128.400 C 70.223 128.400,71.284 126.604,71.131 125.527 C 70.982 124.482,69.931 124.110,69.312 124.883 M159.450 125.919 C 159.098 126.489,159.902 127.323,160.560 127.071 C 161.463 126.724,161.360 125.600,160.424 125.600 C 159.997 125.600,159.558 125.744,159.450 125.919 M342.068 141.954 C 341.775 142.137,341.595 142.758,341.668 143.333 C 341.763 144.088,341.948 144.286,342.332 144.046 C 342.625 143.863,342.805 143.242,342.732 142.667 C 342.637 141.912,342.452 141.714,342.068 141.954 M167.405 162.885 C 164.902 164.336,164.491 166.913,166.728 167.127 C 169.288 167.373,171.571 164.715,170.149 163.144 C 169.383 162.297,168.554 162.219,167.405 162.885 M140.982 187.382 C 139.087 189.276,139.824 192.000,142.231 192.000 C 143.893 192.000,144.600 191.081,144.600 188.924 C 144.600 186.293,142.827 185.537,140.982 187.382 M159.346 187.663 C 158.321 188.165,157.399 189.751,157.776 190.362 C 158.584 191.668,161.078 190.272,161.291 188.395 C 161.415 187.298,160.666 187.016,159.346 187.663 M124.497 190.063 C 123.708 190.852,123.915 191.587,125.049 192.018 C 126.332 192.506,127.295 191.863,127.119 190.635 C 126.980 189.658,125.274 189.286,124.497 190.063 M219.417 207.572 C 219.090 208.102,219.805 208.450,220.597 208.146 C 221.131 207.941,221.159 207.820,220.734 207.550 C 220.038 207.110,219.699 207.115,219.417 207.572 M229.467 210.667 C 229.052 211.082,229.153 212.400,229.600 212.400 C 229.820 212.400,230.000 211.950,230.000 211.400 C 230.000 210.353,229.908 210.226,229.467 210.667 M159.760 219.496 C 158.748 220.195,157.782 224.000,158.616 224.000 C 159.164 224.000,161.873 222.405,162.497 221.715 C 163.625 220.467,161.200 218.501,159.760 219.496 M187.948 228.403 C 184.044 229.071,181.147 231.080,180.739 233.404 C 180.567 234.383,181.561 234.327,187.469 233.028 C 195.652 231.228,196.089 227.011,187.948 228.403 M177.583 235.313 C 175.572 236.902,175.353 240.750,177.271 240.794 C 177.753 240.805,178.749 238.411,179.024 236.582 C 179.308 234.687,178.867 234.299,177.583 235.313 M332.580 264.987 C 331.449 267.693,331.954 268.897,334.671 269.971 C 335.370 270.247,336.253 270.817,336.633 271.237 C 338.281 273.057,338.987 271.568,337.575 269.251 C 337.122 268.509,336.390 266.934,335.947 265.751 C 334.930 263.032,333.529 262.715,332.580 264.987 M243.661 264.354 C 242.856 264.864,243.271 266.127,244.425 266.680 C 246.344 267.600,248.057 266.317,247.128 264.657 C 246.733 263.951,244.591 263.764,243.661 264.354 M219.467 270.267 C 218.886 270.847,219.249 271.919,220.100 272.142 C 221.120 272.409,222.673 271.165,222.225 270.440 C 221.929 269.962,219.899 269.834,219.467 270.267 M317.867 289.867 C 317.250 290.483,317.633 291.251,318.496 291.128 C 319.628 290.966,319.986 289.600,318.896 289.600 C 318.477 289.600,318.013 289.720,317.867 289.867 M82.500 298.598 C 81.362 299.891,82.383 302.000,84.149 302.000 C 86.124 302.000,86.530 300.453,84.942 298.981 C 83.741 297.868,83.216 297.786,82.500 298.598 M86.069 302.473 C 86.141 302.978,86.515 303.452,86.900 303.525 C 87.870 303.710,87.779 302.704,86.769 302.074 C 86.012 301.601,85.950 301.636,86.069 302.473 M97.196 309.608 C 96.657 310.614,96.910 311.051,98.168 311.292 C 99.965 311.635,101.237 309.517,99.511 309.055 C 98.040 308.661,97.653 308.753,97.196 309.608 M290.400 317.600 C 290.400 318.040,290.561 318.400,290.757 318.400 C 291.207 318.400,291.626 317.360,291.306 317.039 C 290.824 316.558,290.400 316.820,290.400 317.600 M115.198 329.201 C 113.671 330.145,117.941 334.169,119.738 333.479 C 120.568 333.160,120.623 331.083,119.819 330.415 C 118.910 329.662,115.783 328.840,115.198 329.201 M275.220 338.176 C 273.701 340.007,276.807 342.348,278.790 340.868 C 280.720 339.427,280.204 337.824,277.764 337.681 C 276.311 337.597,275.583 337.738,275.220 338.176 M147.788 342.820 C 147.407 343.435,147.928 343.832,148.442 343.318 C 148.729 343.031,148.736 342.807,148.462 342.639 C 148.239 342.500,147.935 342.582,147.788 342.820 M244.000 345.607 C 243.159 346.158,244.150 346.786,245.876 346.794 C 246.968 346.799,247.984 346.208,247.540 345.826 C 247.086 345.436,244.504 345.276,244.000 345.607 " stroke="none" fill="#fbfaf4" fill-rule="evenodd"></path></g></svg>